<svg xmlns="http://www.w3.org/2000/svg" xmlns:xlink="http://www.w3.org/1999/xlink" xml:space="preserve" id="svg235" viewBox="0 0 1127.6852 947.02582">
  <style id="style_common">
    .trees { fill:#144043 }
    .cement { fill:#c6c2c2 }
    .land { fill:#1f5054 }
    .rock { fill:#dcd5b6 }
    .water { fill:#4a6b96 }
    .wood { fill:#593700 }
    .tarmac { fill:#768089 }
    .gravel { fill:#946d3e }
    .building { fill:#1a2632 }
    .floor { fill:#70777f }
    .locked { fill:#37414c }
    .map_border { fill:none;stroke:#000;stroke-width:2 }
    .fence { fill:none;stroke:#c4e3c3;stroke-width:1 }
    .road_tarmac { fill:none;stroke:#888 }
    .road_gravel { fill:none;stroke:#946d3e }
    .road_small { stroke-width:5 }
    .road_medium { stroke-width:8 }
    .road_large { stroke-width:12 }
    .railroad { fill:none;stroke:#914833;stroke-dasharray:6;stroke-width:3 }
    .powerline { fill:none;stroke:#ffce00;stroke-width:2;stroke-miterlimit:10;stroke-dasharray:6,6 }
    .danger { fill:red;fill-opacity:.4;stroke:red;stroke-dasharray:4,2;stroke-width:2 }
    .task { fill:#000 }
    .stairs { fill:#FFD700 }
    .shadow { filter:drop-shadow(0 0 2px #000) }
  </style>
  <style id="style_interchange">
    .structure{ fill:#4b4b4b }
  </style>
  <defs id="defs1">
    <linearGradient id="rampDown_l2r">
      <stop offset="0" style="stop-color:#777777;stop-opacity:0"/>
      <stop offset="1" style="stop-color:#000000;stop-opacity:0.5"/>
    </linearGradient>
    <linearGradient id="rampDown_r2l">
      <stop offset="0" style="stop-color:#000000;stop-opacity:0.5"/>
      <stop offset="1" style="stop-color:#777777;stop-opacity:0"/>
    </linearGradient>
    <linearGradient id="rampUp_l2r">
      <stop offset="0" style="stop-color:#ffffff;stop-opacity:0"/>
      <stop offset="1" style="stop-color:#ffffff;stop-opacity:0.5"/>
    </linearGradient>
    <linearGradient id="rampUp_r2l">
      <stop offset="0" style="stop-color:#ffffff;stop-opacity:0.5"/>
      <stop offset="1" style="stop-color:#ffffff;stop-opacity:0"/>
    </linearGradient>
    <linearGradient xlink:href="#rampDown_l2r" id="linearGradient199" x1="570.80627" x2="591.41376" y1="547.44904" y2="547.44904" gradientUnits="userSpaceOnUse"/>
    <linearGradient xlink:href="#rampDown_l2r" id="linearGradient204" x1="619.79303" x2="641.30688" y1="422.59802" y2="422.59802" gradientUnits="userSpaceOnUse"/>
    <linearGradient xlink:href="#rampDown_l2r" id="linearGradient208" x1="570.74658" x2="591.21991" y1="298.05548" y2="298.05548" gradientUnits="userSpaceOnUse"/>
    <linearGradient xlink:href="#rampDown_l2r" id="linearGradient244" x1="655.25275" x2="667.29785" y1="553.22253" y2="553.22253" gradientUnits="userSpaceOnUse"/>
    <linearGradient xlink:href="#rampDown_r2l" id="linearGradient178" x1="548.24091" x2="564.77557" y1="422.53278" y2="422.53278" gradientUnits="userSpaceOnUse"/>
    <linearGradient xlink:href="#rampDown_r2l" id="linearGradient183" x1="573.39221" x2="589.56195" y1="576.43915" y2="576.43915" gradientUnits="userSpaceOnUse"/>
    <linearGradient xlink:href="#rampDown_r2l" id="linearGradient185" x1="684.66193" x2="711.6239" y1="567.37439" y2="567.37439" gradientUnits="userSpaceOnUse"/>
    <linearGradient xlink:href="#rampDown_r2l" id="linearGradient190" x1="654.51849" x2="665.97156" y1="289.8432" y2="289.8432" gradientUnits="userSpaceOnUse"/>
    <linearGradient xlink:href="#rampDown_r2l" id="linearGradient192" x1="576.3573" x2="589.80786" y1="192.79044" y2="192.79044" gradientUnits="userSpaceOnUse"/>
    <linearGradient xlink:href="#rampDown_r2l" id="linearGradient194" x1="559.69928" x2="590.40698" y1="278.69775" y2="278.69775" gradientUnits="userSpaceOnUse"/>
    <linearGradient xlink:href="#rampDown_r2l" id="linearGradient202" x1="673.22711" x2="695.30042" y1="422.70334" y2="422.70334" gradientUnits="userSpaceOnUse"/>
    <linearGradient xlink:href="#rampDown_r2l" id="linearGradient206" x1="583.65594" x2="605.47681" y1="422.56631" y2="422.56631" gradientUnits="userSpaceOnUse"/>
    <linearGradient xlink:href="#rampDown_r2l" id="linearGradient240" x1="863.42493" x2="863.42493" y1="428.76938" y2="416.15024" gradientUnits="userSpaceOnUse"/>
    <linearGradient xlink:href="#rampDown_r2l" id="linearGradient84" x1="657.24396" x2="657.24396" y1="502.37454" y2="489.20514" gradientUnits="userSpaceOnUse"/>
    <linearGradient xlink:href="#rampUp_l2r" id="linearGradient169" x1="673.34357" x2="686.22186" y1="422.54663" y2="422.54663" gradientUnits="userSpaceOnUse"/>
    <linearGradient xlink:href="#rampUp_l2r" id="linearGradient175" x1="584.40588" x2="596.59332" y1="422.229" y2="422.229" gradientUnits="userSpaceOnUse"/>
    <linearGradient xlink:href="#rampUp_l2r" id="linearGradient229" x1="577.13721" x2="585.26691" y1="192.14255" y2="192.14255" gradientUnits="userSpaceOnUse"/>
    <linearGradient xlink:href="#rampUp_l2r" id="linearGradient231" x1="559.83801" x2="578.79132" y1="278.44525" y2="278.44525" gradientUnits="userSpaceOnUse"/>
    <linearGradient xlink:href="#rampUp_l2r" id="linearGradient233" x1="549.2016" x2="559.91034" y1="421.91113" y2="421.91113" gradientUnits="userSpaceOnUse"/>
    <linearGradient xlink:href="#rampUp_l2r" id="linearGradient235" x1="574.34711" x2="585.57257" y1="575.76074" y2="575.76074" gradientUnits="userSpaceOnUse"/>
    <linearGradient xlink:href="#rampUp_l2r" id="linearGradient237" x1="657.16199" x2="657.16199" y1="507.30679" y2="489.81567" gradientUnits="userSpaceOnUse"/>
    <linearGradient xlink:href="#rampUp_l2r" id="linearGradient239" x1="685.30359" x2="702.33179" y1="566.5777" y2="566.5777" gradientUnits="userSpaceOnUse"/>
    <linearGradient xlink:href="#rampUp_r2l" id="linearGradient173" x1="628.65796" x2="641.47662" y1="422.68347" y2="422.68347" gradientUnits="userSpaceOnUse"/>
    <linearGradient xlink:href="#rampUp_r2l" id="linearGradient180" x1="580.14874" x2="592.89923" y1="547.57135" y2="547.57135" gradientUnits="userSpaceOnUse"/>
    <linearGradient xlink:href="#rampUp_r2l" id="linearGradient187" x1="579.55914" x2="593.30176" y1="297.75217" y2="297.75217" gradientUnits="userSpaceOnUse"/>
    <linearGradient xlink:href="#rampUp_r2l" id="linearGradient219" x1="863.62848" x2="863.62848" y1="428.51624" y2="415.77615" gradientUnits="userSpaceOnUse"/>
    <linearGradient xlink:href="#rampUp_r2l" id="linearGradient221" x1="859.25153" x2="859.25153" y1="267.0549" y2="229.66937" gradientUnits="userSpaceOnUse"/>
    <linearGradient xlink:href="#rampUp_r2l" id="linearGradient223" x1="827.39575" x2="865.86719" y1="161.44046" y2="161.44046" gradientUnits="userSpaceOnUse"/>
    <linearGradient xlink:href="#rampUp_r2l" id="linearGradient225" x1="858.66565" x2="858.66565" y1="575.07996" y2="615.83398" gradientUnits="userSpaceOnUse"/>
    <linearGradient xlink:href="#rampUp_r2l" id="linearGradient227" x1="826.42755" x2="864.82324" y1="682.54443" y2="682.54443" gradientUnits="userSpaceOnUse"/>
    <linearGradient xlink:href="#rampUp_r2l" id="linearGradient242" x1="661.1485" x2="668.93115" y1="289.62399" y2="289.62399" gradientUnits="userSpaceOnUse"/>
    <linearGradient xlink:href="#rampUp_r2l" id="linearGradient246" x1="660.5708" x2="669.35779" y1="622.61993" y2="622.61993" gradientUnits="userSpaceOnUse"/>
  </defs>
  <g id="Ground_Level" data-name="Ground Level">
    <g id="Base_Terrain" class="land" data-name="Base Terrain">
      <path d="m1127.69 747.162-41.27 11.484-36.66 11.291-39.01 8.53-36.739 7.449-96.386 5.404-71.785 4.546-68.048 10.614-45.401 12.824L654 836.802l-52.854 29.013-49.816 30.879-17.22 9.853-13.949 6.225-25.19 2.73-458.1031.098s-1.5442-42.934-1.6279-64.411c-.0421-10.802 1.2062-21.619.5662-32.402-.3334-5.617-.7966-11.3-2.2893-16.725-1.616-5.874-5.5539-10.942-7.1324-16.825-1.3237-4.934-1.5933-10.108-1.885-15.207-.6618-11.57 1.5037-23.237.3146-34.764-1.1957-11.592-4.4601-22.893-7.4463-34.158-4.3468-16.397-11.406-32.032-15.21581-48.562-1.00694-4.369-1.7652-8.824-2.00211-13.301-.53738-10.155.47864-20.346 1.332-30.479.98815-11.735.2235-24.038 4.38169-35.055 1.4709-3.898 3.92055-7.56 7.02963-10.332 3.4381-3.066 8.5653-3.638 12.2381-6.418 3.6132-2.735 7.0675-5.955 9.3456-9.872 4.7388-8.149 6.3181-17.824 8.2354-27.054 2.4353-11.722 3.3618-23.733 4.0916-35.684.8192-13.413.067-26.878.3156-40.315.2826-15.279 1.8437-30.552 1.3369-45.826-.4845-14.603-2.711-29.097-4.1797-43.635-3.5092-34.733-8.6059-69.321-11.0685-104.144-2.0489-28.974-2.8865-58.038-3.0766-87.084-.2959-45.221 3.0152-135.6326 3.0152-135.6326l42.5001-.1487 32.1051-13.6815-.075-12.73838 58.9-.10075V13.8489l10.636 8.546 139.573.9248 10.325-9.6421.01-12.4266 80.452-.15153V13.3819l10.629 9.6018h616.408s.62 129.1513 4.17 148.2473c1.78 9.53 3.4 19.495 4.93 29.069 2.35 14.751 8.56 29.141 14.13 42.997 4.9 12.152 13.33 26.25 23.21 34.857 16.39 14.282 26.16 24.973 37.69 40.999 5.2 7.233 4.53 15.573 6.86 24.172 1.67 6.201 1.69 19.197 1.69 19.197Z"/>
    </g>
    <g id="Water" class="water">
      <path d="M272.793 335.596c3.412-.247 6.891-1.532 9.604-3.617 1.417-1.09 3.381-2.597 3.118-4.365-.433-2.904-5.161-3.063-6.985-5.363-1.191-1.502-2.005-3.357-2.37-5.239-.19-.98.355-2.022.125-2.993-.395-1.666-1.883-2.891-2.494-4.49-1.142-2.987-.679-6.501-2.121-9.355-.917-1.815-2.786-2.977-3.991-4.615-.841-1.143-.891-3.193-2.245-3.617-1.599-.501-3.289.971-4.615 1.996-2.297 1.774-4.334 4.146-5.363 6.86-.724 1.908-.746 4.104-.374 6.111.657 3.549 3.344 6.431 4.49 9.854.608 1.817.634 3.796 1.247 5.612 1.142 3.384 2.245 6.951 4.49 9.729.915 1.131 2.169 2.013 3.492 2.619 1.239.567 2.633.972 3.992.873"/>
      <path d="M226.937 261.424c2.016-.036 3.853 1.675 5.862 1.497 1.501-.133 2.752-1.23 4.116-1.871 1.464-.688 2.802-1.702 4.365-2.12 2.255-.604 5.197 1.002 6.985-.499 1.312-1.102 1.799-3.366 1.247-4.989-.41-1.205-1.844-1.824-2.994-2.37-2.269-1.077-4.849-1.515-7.358-1.621-4.4-.186-9.219-.343-13.097 1.746-1.842.992-3.673 2.694-4.115 4.739-.34 1.569.55 3.236 1.371 4.615.362.606.814 1.323 1.497 1.497.714.182 1.384-.61 2.121-.624"/>
      <path d="M193.278 215.991c-2.396-1.582-5.677-3.53-8.29-2.341-2.302 1.048-3.809 4.395-3.243 6.86.43 1.874 3.43 2.014 4.49 3.617 1.096 1.658.769 3.942 1.621 5.738.435.917.918 1.908 1.747 2.494 2.148 1.521 5.434.635 7.608 2.121 1.888 1.29 2.195 4.246 4.116 5.488 1.748 1.129 4.355 2.507 6.094 1.363 1.518-.998.456-3.626 1.015-5.355 1.116-3.451 5.359-6.303 4.615-9.853-.284-1.356-1.803-2.329-3.127-2.738-3.121-.966-6.705 2.399-9.732 1.168-3.399-1.381-3.852-6.542-6.914-8.562"/>
      <path d="M268.922 237.738c-1.477.189-2.94 1.294-3.617 2.62-.416.814-.396 1.919 0 2.744.461.959 1.728 1.256 2.494 1.995 1.147 1.105 1.817 2.701 3.119 3.617.947.667 2.085 1.277 3.242 1.247.819-.02 1.728-.362 2.246-.997.617-.759.825-1.911.623-2.869-.349-1.66-2.469-2.503-2.993-4.116-.232-.712.422-1.627 0-2.245-1.032-1.511-3.299-2.228-5.114-1.996"/>
      <path d="M222.766 234.654c-1.646-.143-3.751.596-4.507 2.065-.904 1.758.551 3.931 1.127 5.822.515 1.69.613 3.876 2.066 4.882 1.905 1.32 5.242 1.852 6.948.282 2.189-2.016 1.705-6.258.375-8.92-1.086-2.175-3.587-3.922-6.009-4.131"/>
      <path d="M1047.62 518.495c2.19 8.138.56 17.5.56 25.803 0 4.723-.53 8.862-1.68 13.462-.84 3.349-7.51 30.075-16.83 20.754-3.83-3.833-1.83-14.177-5.61-17.949-3.39-3.398-17.92-7.902-14.02-15.706 3.07-6.148 14.28-7.551 19.07-12.341 3.38-3.377 14.03-30.676 18.51-14.023"/>
      <path d="M1010.89 107.32c2.74-1.809 7.64-1.197 9.78 1.305 5.65 6.614-.41 17.389-.65 26.083-.39 13.912-2.51 27.867-1.31 41.733 1.11 12.826 5.11 25.237 7.83 37.82 1.88 8.711 1.81 18.151 5.87 26.084 4.63 9.046 13.87 14.882 20.21 22.822 5.35 6.693 7.89 16.085 15 20.867 5.38 3.62 2.41 4.637 8.11 7.738 10.8 5.882 13.35 12.086 20.26 22.257 6.85 10.081 11.74 21.877 13.69 33.909 2.83 17.411-3.45 35.179-3.26 52.818.21 18.104 5.15 36.027 4.57 54.123-.29 8.787-3.94 17.291-3.91 26.083.02 9.898 4.15 19.453 4.56 29.343.38 9.145-1.63 18.241-1.96 27.388-.26 7.385-.09 14.781 0 22.17.22 17.828 1.62 35.645 1.31 53.471-.26 14.586-2.46 29.101-2.61 43.689-.17 16.748 3.09 33.499 1.96 50.21-.77 11.231 3.37 26.825-5.87 33.256-3.99 2.777-11.09.995-14.35-2.608-9.07-10.023-2.49-26.931-3.26-40.429-.74-13.028-1.75-26.084-1.3-39.125.36-10.7 2.12-21.306 3.26-31.952 1.46-13.7 4.59-27.303 4.56-41.081-.02-13.346-3.65-26.462-4.56-39.777-.67-9.76-.45-19.562-.65-29.343-.24-11.737-1.31-23.491-.66-35.212.56-10.068 3.74-19.914 3.92-29.996.28-16.154-3.65-32.123-4.57-48.254-.64-11.286-1.53-22.637-.65-33.908.58-7.482 5.66-14.871 3.91-22.171-2.52-10.57-11.44-18.864-19.56-26.083-9.39-8.345-5.88-10.627-15.33-18.91-9.91-8.685-15.77-21.114-24.13-31.3-7.13-8.696-17.31-15.289-22.17-25.431-5.34-11.15-4.9-24.258-6.52-36.516-2-15.14-4.765-30.399-3.911-45.646.743-13.279 4.721-26.191 7.821-39.125 1.32-5.487-.14-13.197 4.57-16.302"/>
      <path d="M525.335 44.213c-3.766-.2382-13.223 2.9128-9.14 6.9962.831.8309 5.674-1.097 7.561.7899 2.527 2.5274-1.811 12.9819-3.611 14.7825-2.549 2.5485-6.621 4.5076-10.594 5.8774-1.317.4539-7.127 3.0511-6.293 4.7202 1.896 3.7914 16.71-.1666 18.805 1.9279.877.8766 7.506 4.0897 8.915 3.3853 7.34-3.6704-1.401-17.306.451-24.7126.384-1.537.522-3.0331 1.016-4.5137.727-2.1812 4.621-4.5188 1.692-7.4476-2.898-2.898-5.549-1.8055-8.802-1.8055"/>
      <path d="M439.294 60.6702c6.403-.2769-.241 11.0987 1.804 13.1436 5.106 5.1057 1.73 12.3245-4.639 13.9168-1.124.281-4.176.2052-4.896-.5155-7.276-7.275-.772-26.1771 7.731-26.5449"/>
      <path d="M452.953 57.3195c-.612.5311-2.092.454-1.031 2.5772.804 1.6069 2.093 3.3818 3.093 4.3812 2.539 2.5388-2.777 7.59-1.289 10.5664 1.403 2.8058 14.222 11.55 18.04 7.7315 3.75-3.75-3.026-10.4166 4.382-12.8858 4.887-1.629 14.096 3.9438 18.04 0 2.944-2.9444-4.613-7.4473-6.443-9.2779-1.947-1.9472 2.365-7.6863.258-9.7932-1.774-1.7739-9.726-1.3563-11.598.5154-4.132 4.1322-2.101 7.1072-9.535 10.8241-7.981 3.9905-10.395-7.6969-13.917-4.6389"/>
      <path d="M338.269 336.17c-2.585 1.061-2.185 4.246-3.608 5.67-2.795 2.795-.825 16.649 3.608 14.432 3.03-1.515-.965-6.059.258-8.505 1.039-2.079 4.095-13.384-.258-11.597"/>
      <path d="M321.26 331.273c1.987-4.197 3.05-12.928 0-15.978-4.323-4.322-21.776-6.316-26.288-1.804-4.172 4.172 18.912 3.191 19.071 3.35 3.614 3.614 4.259 20.68 7.217 14.432"/>
      <path d="M188.908 303.965c-8.954-9.165-23.287-21.533-36.181-27.98-1.167-.583-6.826-3.305-8.202-1.93-13.662 13.663-3.666 53.259 9.649 66.574 4.928 4.929 15.915 4.582 22.674 6.272 5.638 1.409 19.859 6.033 25.327 5.065 9.767-1.728 17.997-13.548 14.231-24.844-4.388-13.164-20.935-16.439-27.498-23.157"/>
    </g>
    <g id="Structure" class="structure">
      <path d="m827.051 138.497-143.313.015v10.694H552.234v136.242h-7.971v272.834h7.921V675.98h-1.866v18.947h18.704v-2.246h114.874v13.026h143.293v-127.31h37.692l4.67-20.073V285.22l-4.67-19.372h-37.83Z"/>
    </g>
    <g id="Gravel" class="road_gravel  road_small">
      <path d="M349.613 799.308s-11.925 15.751-19.476 21.982c-10.091 8.329-21.905 14.503-33.785 19.985-11.274 5.203-23.034 9.776-35.233 12.089-28.639 5.428-58.244 2.489-87.36 3.861-12.872.606-25.77.851-38.612 1.93-15.013 1.262-29.887 3.888-44.8861 5.31-15.7361 1.491-31.5029 2.815-47.2995 3.378-5.3058.189-24.611.724-24.611.724"/>
      <path d="M210.679 636.103s-5.725-12.194-8.115-18.485c-1.823-4.798-2.26-10.155-4.734-14.652-3.91-7.105-9.231-13.631-15.554-18.709-4.218-3.388-9.219-5.971-14.426-7.439-4.932-1.39-10.206-1.213-15.329-1.127-11.258.189-22.424 5.081-33.587 3.607-6.391-.845-11.714-5.712-18.033-6.988-7.6631-1.548-15.6708.161-23.4434-.677-7.6777-.827-15.34-2.168-22.7671-4.282-10.2266-2.912-19.3548-9.285-29.755-11.497-7.2852-1.549-15.06678-2.836-22.31618-1.127-3.2747.772-8.79124 4.959-8.79124 4.959"/>
      <path d="M87.8943 721.141s-5.3342-24.819-6.4366-37.741c-1.1864-13.908-1.1922-28.846 2.048-42.423 2.462-10.316 8.3832-18.425 11.1177-28.672 1.061-3.976 1.0418-8.176 1.1703-12.288.4695-15.019-1.6383-30.031-1.4628-45.056.2041-17.483-1.5645-35.473 2.9257-52.37 1.6241-6.112 5.5294-11.378 8.4844-16.969 2.713-5.134 6.824-9.65 8.485-15.214 1.565-5.247 2.342-11.036 1.17-16.384-.953-4.349-5.609-7.329-6.437-11.703-.987-5.218 1.338-10.536 2.048-15.799.751-5.563 2.527-11.066 2.341-16.676-.301-9.061-4.541-17.616-5.559-26.624-1.139-10.081-.056-20.297-.585-30.428-.837-16.03-2.132-32.05-4.096-47.981-1.946-15.786-6.1286-31.268-7.6068-47.104-2.7838-29.821.0651-59.967-2.3406-89.82-.9328-11.575-4.4812-22.912-4.6811-34.523-.2515-14.602 3.5319-29.014 4.3885-43.5932 1.0069-17.1371.8777-51.4925.8777-51.4925"/>
    </g>
    <g id="Roads" class="road_tarmac">
      <g id="Normal_Roads" class="road_medium" data-name="Normal Roads">
        <path d="M371.839 791.311c14.514-25.829 42.63-30.618 61.465-51.118"/>
        <path d="M453.672 715.553c.227 12.606-14.117 26.222-26.725 26.062-12.291-.158-24.699-11.961-24.477-26.062.214-13.064 10.305-24.768 24.074-24.92 14.6-.054 26.908 12.735 27.128 24.92Z"/>
        <path d="M375.848 611.636c.195 11.491 12.638 26.263 26.811 26.582 12.852.288 30.38-12.701 31.501-22.739"/>
        <path d="M433.79 690.182c1.321-372.342.972-539.185.949-545.514s.745-9.868 2.59-12.613 4.422-5.271 8.032-7.376 14.905-3.363 19.675-3.623c4.771-.26 13.585-1.076 68.095-1.173"/>
        <path d="M738.453 703.936v21.431"/>
        <path d="m939.504 725.44-487.017-.82"/>
        <path d="M695.935 722.238c.009 6.913.238 11.697.349 17.224.169 8.511.201 13.852.178 20.922-.28 5.229.651 10.977-5.13 14.502-28.254 16.081-62.396 30.406-91.5 45.511-8.95 4.446-22.016 12.08-30.262 14.524-7.477 2.215-14.419 1.799-22.216 1.847-20.106.123-38.313.233-60.127.154-18.706.042-42.61 1.847-48.871-3.131-6.481-5.55-9.34-12.792-10.319-22.695-.946-13.264-.479-23.843-.472-37.625.006-10.957.957-24.531.774-32.971"/>
        <path d="M535.681 120.89s-.121 113.096-.434 141.108c-.05 4.421.283 7.601-1.197 10.89-1.386 3.083-4.262 5.04-5.583 7.926-1.215 2.658-1.666 6.672-1.657 9.79.125 43.479-.741 80.121-.89 120.184-.165 44.759-.337 89.709 0 134.278.026 3.371-.114 9.167.672 12.593.914 3.986 3.991 7.626 5.952 9.899 3.469 4.023 2.682 7.418 2.698 12.778.127 46.257-.239 140.566-.239 140.566"/>
        <path d="M532.529 119.842c109.513.22 210.884-.521 320.668-.476"/>
        <path d="M939.504 725.44s.539-16.427 0-31.097c-.544-14.785-14.901-25.736-30.913-28.018-12.999-1.853-44.156-1.46-44.156-1.46"/>
        <path d="M877.959 666.002c-.166-48.595-.157-224.139-1.309-521.737-.584-9.27-6.133-24.868-23.61-24.893"/>
        <path d="M1002.46 787.74s-1.77-19.587-11.562-40.655c-3.032-6.024-8.537-12.665-14.343-16.093-9.284-5.477-37.051-5.552-37.051-5.552s-29.372 0-45.871-1.023c-11.832-3.101-15.228-13.359-15.429-22.457-.29-13.025-.224-29.371-.245-35.468"/>
        <path d="M513.877 659.713h18.958"/>
        <path d="M514.204 621.114h18.23"/>
        <path d="M512.804 550.918h11.213"/>
        <path d="M512.439 512.397h12.005"/>
        <path d="M512.416 441.475h12.005"/>
        <path d="M449.643 512.082h-13.28"/>
        <path d="M449.643 550.553h-13.371"/>
        <path d="M450.854 402.879h-14.673"/>
        <path d="M512.617 332.444h12.005"/>
        <path d="M513.062 293.351h11.56"/>
        <path d="M451.582 293.026h-15.777"/>
        <path d="M451.246 330.945h-15.777"/>
        <path d="M514.231 224.081h18.514"/>
        <path d="M434.38 146.154h100.137"/>
        <path d="M631.723 120.923v23.994"/>
        <path d="M614.363 720.994v-31.135"/>
        <path d="M604.838 722.569v15.828"/>
        <path d="M493.833 726.704v14.124"/>
        <path d="M525.226 402.132h-12.005"/>
        <path d="M864.641 175.295h15.226"/>
        <path d="M536.844 235.675h18.514"/>
        <path d="M528.127 376.261h18.513"/>
        <path d="M528.413 466.241h18.513"/>
        <path d="M536.206 621.055h18.514"/>
        <path d="M846.019 108.196v8.945"/>
        <path d="m903.518 80.8544.183 78.5306"/>
        <path d="m1028.02 79.0612-153.025-.1501"/>
        <path d="M902.533 117.186c-17.28-.202-32.747-.317-33.909 6.061"/>
        <path d="M1161.63 746.138c-28.84 6.091-85.41 25.046-114 32.234-23.89 6.006-47.955 11.585-72.338 15.125-21.113 3.067-42.506 3.761-63.789 5.261-41.18 2.903-82.634 2.433-123.636 7.234-22.55 2.641-44.649 6.501-66.595 12.321-18.23 4.834-35.366 11.77-52.545 19.554-34.948 15.836-67.128 36.028-99.653 56.382-28.817 18.034-74.355 49.362-74.355 49.362"/>
        <path d="M1117.31 757.28s2.48-260.058 3.26-388.45c.08-12.184-1.07-24.57-4.4-36.288-2.97-10.406-10.21-19.222-17.16-27.483-7.47-8.867-18.2-14.539-25.94-23.169-6.03-6.721-11.37-14.146-15.76-22.035-8.33-14.97-14.79-30.775-19.79-47.439-5.2-17.344-6.62-35.656-8.25-53.69-1.81-20.111-1.67-40.364-1.67-60.5574.01-35.0183-.65-93.39362-.65-93.39362"/>
      </g>
      <g id="Highways" class="road_large">
        <path d="M478.475 39.0898c-26.897 14.6763-39.424 24.1391-57.743 45.0851-23.053 28.0491-41.54 62.7461-41.782 111.7851"/>
        <path d="M348.819 946.999c.148-153.392 2.956-330.318 4.832-484.737.938-77.21 3.189-196.881 3.744-274.029.556-77.149-.585-111.7744-.511-188.47288"/>
        <path d="M259.163 38.8309c28.247 16.232 32.586 20.0323 55.308 42.648 24.094 28.6581 44.204 64.6431 42.85 114.4691"/>
        <path d="M371.059 947.026c0-153.401 3.694-367.166 5.571-521.626.938-77.23 1.727-154.46 2.281-231.557.553-77.097-.121-117.1444-.121-193.843"/>
      </g>
    </g>
    <g id="Rocks" class="rock">
      <path d="M102.722 877.705c-6.9739-.015-9.558 1.716-12.832 4.99-11.9875 11.987 2.2993 26.204 15.684 21.742 2.759-.92 10.73-17.785 7.486-21.029-1.284-1.284-3.688-1.549-4.99-2.852-1.649-1.649-2.423-2.845-5.348-2.851m159.143 3.111c-2.155.01-5.466 2.543-5.872 2.949-2.143 2.144-8.119-2.931-10.337-.713-4.149 4.149-8.289 10.07-13.545 15.327-2.784 2.783-7.098 1.751-9.623 4.277-2.433 2.433-4.209 5.415-6.899 6.299-12.871 4.227-60.054-2.436-62.607.117-2.825 2.824-29.63 1.015-38.496 1.068-18.8232.113-31.2203-14.404-40.9695-9.529-6.7927 3.396-19.1338-7.537-27.4016 8.24-1.752 3.343 18.8125 5.924 20.6071 5.924 5.9813 0 14.239-2.08 19.873-2.08 6.6816 0 10.129-.277 16.127 1.723 6.782 2.26 16.447-1.765 22.812.357 10.272 3.424 20.631-2.329 25.665-1.07 1.91.477 18.966 2.627 23.257 2.437 2.428-.107 6.351-2.344 9.268-2.344 2.258 0 9.705.457 11.742 1.475 3.798 1.899 12.669-.405 20.254-.932 5.077-.352 14.409-.279 14.609-.279 2.246 0 8.099-1.274 10.694-2.139 6.896-2.298 16.007 6.804 23.168-.357 4.167-4.167 15.992 4.285 21.386 1.07 2.907-1.732.076-6.566 1.426-9.267 8.731-17.461-5.559-12.583-14.613-17.11-3.606-1.803-7.295-3.017-9.268-4.99-.323-.324-.76-.455-1.257-.453"/>
      <path d="M923.678 455.31c-1.495-.826-2.805-2.331-3.796-3.322-.779-.778-2.608-1.988-3.037-2.847-.889-1.777 3.286-7.041 6.169-5.6.954.477 1.64 1.45 2.373 2.183.814.815 2.01 1.496 2.657 2.468 2.15 3.225-1.952 6.514-4.366 7.118"/>
      <path d="M1014.41 414.688c1.22-.576 3.37.143 4.37-.854.72-.719 1.84-.603 2.56-1.329.6-.597 1.39-.4 2.18-.664 4.96-1.651 8.78 10.835 7.12 14.142-.7 1.406-4.14 2.499-5.88 2.847-6.91 1.382-8.61-2.49-10.35-7.688-.21-.647.01-1.685-.28-2.278-.51-1.011-.82-3.652.28-4.176"/>
      <path d="M955.568 358.122c.266-.392 4.867-2.55 6.739-1.614 3.276 1.639 4.775 4.97 3.037 8.447-.243.485-.686 1.719-1.234 1.993-1.175.588-2.312.911-3.606 1.234-2.475.619-6.829-7.271-4.936-10.06"/>
      <path d="M1003.78 374.921c1.8.692 4.1 1.347 5.51 2.752 1.8 1.807-1.75 7.813-3.89 6.739-1.47-.732-4.59-3.709-5.13-5.315-.79-2.373 1.46-4.966 3.51-4.176"/>
      <path d="M117.225 210.346c2.629-1.619 7.238-2.301 10.44-1.234 1.057.353 1.879.702 2.752 1.139 3.309 1.655 11.862 15.477 10.441 19.742-.712 2.133-13.646 10.767-16.515 11.484-2.136.534-5.613-2.59-6.454-4.271-1.15-2.3-3.602-5.691-5.315-7.403-.452-.453-.557-2.289-.664-3.037-.873-6.113.9-13.7 5.315-16.42"/>
      <path d="M133.478 263.585c-.574.245-.61 5.714.52 7.973 1.369 2.737.734 6.454 2.773 8.493 13.219 13.218 7.565-16.372 4.68-17.333-3.705-1.235-5.34-.259-7.973.867"/>
      <path d="M130.011 288.025c1.456-3.827 5.105-6.548 9.534-4.334 12.566 6.283 9.436 11.191 1.733 18.894-1.458 1.458-14.216-6.808-11.267-14.56"/>
      <path d="M143.705 304.838c.677.48.573 3.627 1.213 5.547.665 1.996 1.56 3.454 1.56 5.547 0 2.558.35 6.758-1.733 7.8-.551.275-1.539-.097-2.08.173-8.73 4.365-16.458-18.556-12.307-22.707 4.073-4.073 11.482 2.32 13.347 3.64"/>
      <path d="M137.465 325.118c-8.995 2.836 2.401 9.213 5.2 6.414 4.906-4.907.741-8.287-5.2-6.414"/>
      <path d="M257.586 288.545c-11.522.191-4.539 11.408.173 16.12 1.358 1.357 5.547-1.925 5.547-2.947 0-1.012 1.06-2 .693-3.467-.907-3.627-3.073-9.762-6.413-9.706"/>
      <path d="M288.786 307.785c-5.329-13.676-14.584.323-10.053 4.853 6.961 6.962 13.84 4.866 10.053-4.853"/>
      <path d="M121.323 332.118c12.118-.213 19.267 17.795 27.6 26.128 1.45 1.45-.773 5.115.368 6.256 2.805 2.804 6.315 3.738 8.832 6.256 1.229 1.229.546 5.609 2.576 6.624 8.594 4.297 19.263 4.174 25.761 10.672 3.726 3.727-2.466 14.039 1.104 15.824 8.417 4.209 15.356-.468 25.024 9.2 3.344 3.345-3.5 12.966-.943 18.08 1.021 2.042 9.303 12.141 10.436 12.757 2.025 1.1 3.673-3.95 5.595-1.765 4.853 5.521 5.715 23.454 11.172 28.911 4.081 4.081-5.905 11.042-3.265 13.683 5.388 5.388 8.285 92.682 8.285 98.719 0 5.861-.155 28.86-2.944 31.648-3.741 3.741 2.918 20.113 3.68 23.92.798 3.993-3.916 27.941-5.152 31.649-1.262 3.786-10.217 21.488-15.136 16.569-1.824-1.825-4.222-7.223-5.84-8.841-1.65-1.65-5.411-1.989-6.624-4.416-2.704-5.409 5.674-23.132 8.784-26.242 6.822-6.822 9.775 1.315 12.56-9.823.808-3.234 1.818-21.93-1.84-22.438-8.912-1.235-16.836-9.515-21.496-10.097-3.746-.468-10.862-3.594-8.68-9.049 1.099-2.748 1.87-6.046 3.916-7.474 2.188-1.528 11.906 2.476 11.954-.915.097-6.798 1.949-14.564 5.379-17.994 4.217-4.218-5.222-17.15-1.377-20.995 1.825-1.825 6.354-4.24 8.464-6.35 4.488-4.489 4.076-26.071 1.104-32.016-1.157-2.315-5.774-2.094-6.992-3.312-1.085-1.085-1.86-3.7-2.944-4.784-3.513-3.513.681-11.831-1.84-14.352-3.723-3.723-8.434 4.169-11.162 4.652-2.042.361-11.873-6.343-13.862-8.332-9.737-9.737.19-12.867-2.208-17.665-2.893-5.785-6.84-20.182-11.126-22.107-5.994-2.692-7.639 9.224-8.011 9.595-.873.874-7.727 1.289-8.832.736-7.322-3.661-17.366-7.43-23.184-13.248-2.873-2.873 1.027-8.986-.736-12.512-5.456-10.911-13.565-5.773-10.304-22.08.226-1.13-.004-3.678 1.472-4.416 2.297-1.148 59.901 16.136 40.008-.745-1.484-1.259-13.131-3.563-14.153-4.585-4.013-4.013 2.921-10.327-8.191-19.326-6.163-4.991-6.278-9.612-9.936-16.928-3.453-6.906-12.379-10.406-15.456-16.56-1.761-3.523-7.944-12.405-1.84-12.512"/>
      <path d="M201.548 503.607c-1.498-17.35 19.535.704 17.296 2.944-5.665 5.665-16.428 7.108-17.296-2.944"/>
      <path d="M204.492 525.319c2.425-2.974 6.717.415 9.568 1.84 3.249 1.625 7.596.972 10.304 3.68 14.951 14.951-34.218 12.07-19.872-5.52"/>
      <path d="M197.868 549.975c8.085-1.413 20.402 11.614 17.664 14.352-2.825 2.824-6.278 4.805-9.2 7.728-1.087 1.087 8.778 5.574 4.784 9.568-1.642 1.642-13.78 4.519-17.664 2.576-1.514-.757-8.484-15.069-5.52-18.032.744-.744 2.63-.791 3.312-1.472 2.13-2.13-1.462-13.307 6.624-14.72"/>
      <path d="M152.059 477.459c-6.945-.148-8.457 3.501-10.496 5.54-11.977 11.977 9.322 16.438 13.248 12.512 7.035-7.035 4.192-17.903-2.752-18.052"/>
      <path d="M149.659 511.335c12.158-7.893 30.004 6.796 18.032 18.768-.468.468-.978 2.271-2.576 1.472-4.365-2.183-24.618-14.292-15.456-20.24"/>
      <path d="M131.259 547.767c5.838-2.74 10.853-.278 15.088 1.84 3.166 1.583 8.236-2.805 11.04 0 2.783 2.783 8.578 9.822 3.312 15.088-4.75 4.751-13.336-3.592-16.192-.736-1.408 1.408-10.952 2.62-13.248 1.472-6.556-3.278-6.271-14.721 0-17.664"/>
      <path d="M218.844 619.895c.598-.388 5.335-3.128 8.832.368 15.116 15.116-12.88 20.542-12.88 4.416 0-1.968 2.238-3.611 4.048-4.784"/>
      <path d="M125.739 686.136c19.676-15.635 23.838 22.531 18.768 27.6-9.793 9.793-20.658 3.947-25.392-5.52-1.475-2.951 2.351-8.3 2.944-10.672.814-3.254.284-8.709 3.68-11.408"/>
      <path d="M161.435 683.192c3.116.403 5.036 2.343 6.256 4.784 12.492 24.982-8.314 21.642-12.88 12.512-1.954-3.909 3.149-7.319 2.208-9.2-2.651-5.303-5.847-9.427 4.416-8.096"/>
      <path d="M228.525 691.929c2.301 1.432-9.058 19.343-10.049 20.335-1.741 1.741-5.309 2.732-7.728 5.152-3.891 3.89-4.207 11.566-8.832 16.192-2.063 2.063-6.538 1.754-8.464 3.68-2.036 2.035-2.105 5.468-5.152 6.992-2.573 1.286-6.914-.223-9.569 1.104-8.478 4.239-16.84 5.859-25.76 8.832-6.74 2.247-13.545.026-20.71 1.817-4.914 1.229-18.915-1.936-19.77-1.081-6.889 6.889-8.767 4.258-13.9358.595-5.8951-4.179-6.6345-6.842 2.5278-10.899 3.839-1.7 4.692 2.3 7.728 3.312 5.656 1.885 12.371 1.472 18.768 1.472 2.98 0 9.94 1.286 12.512 0 2.989-1.494 10.247-6.198 13.248-9.2 2.585-2.585 8.524-.954 12.144-1.84 5.953-1.457 20.097-9.519 25.025-16.56 2.602-3.719-13.905-8.912-8.096-14.72 3.845-3.846 16.028.164 20.24-4.048 1.738-1.739 2.474-3.947 4.784-6.256 1.361-1.361 4.487-.807 5.888-2.208 6.044-6.044 4.482-9.343 15.201-2.671"/>
      <path d="M169.531 712.632c1.214-.52 4.582-.939 7.36 1.84 2.747 2.746.736 6.82.736 9.568 0 17.666-24.256 5.12-13.616-5.52 2.037-2.036 2.527-4.607 5.52-5.888"/>
      <path d="M748.132 742.384c-3.277.362-7.231.966-9.506 3.24-.706.706-.625 1.683-1.08 2.593-1.848 3.696 2.385 6.058 4.537 8.21.783.783.901 1.873 1.836 2.808.282.282 4.507-.401 4.537-.432.537-.537 1.616-.643 2.269-1.296 1.492-1.492 2.84-3.596 4.104-4.861.69-.69-1.356-7.189-1.62-7.454-.464-.463-4.376-2.886-5.077-2.808"/>
      <path d="M413.522 171.746c-5.717-.132-6.997 1.922-8.504 6.443-1.835 5.503 1.596 9.07 4.639 12.113 2.803 2.804-1.546 8.505 1.288 11.34.714.713 6.137.563 6.701 0 6.458-6.458-1.99-9.938.258-14.433 3.5-7 6.008-15.222-4.382-15.463"/>
      <path d="M325.142 833.506c1.511-.683 6.099-5.307 8.199-3.208 3.86 3.861 5.06 24.737-4.991 21.387-9.556-3.186-12.967-13.762-3.208-18.179"/>
      <path d="M323.717 778.971c8.775.344 4.324 17.869 4.633 18.178.732.731 1.809 6.72 1.07 8.198-1.152 2.304-7.892 12.07-10.694 9.268-1.098-1.098-2.982-1.557-3.92-2.495-1.653-1.653.463-7.022-1.07-8.555-8.713-8.713-2.08-25.068 9.981-24.594"/>
      <path d="M249.22 811.05c4.887 1.598 16.04 4.675 16.04 11.05 0 3.503-2.215 4.787-3.564 7.485-3.864 7.728 3.656 5.479-9.624 12.119-6.295 3.148-12.7.132-16.753-3.921-.335-.335-19.604 2.523-19.604-7.841 0-6.515 10.099-9.327 14.97-11.763 1.514-.757 3.55 2.51 4.634 1.426 5.662-5.662 2.653-12.232 13.901-8.555"/>
      <path d="M293.776 814.258c3.064.291 3.017-4.253 4.277-6.772 1.198-2.396-2.048-8.01-2.495-10.693-.774-4.643 2.937-11.948 1.069-15.684-1.055-2.109-2.998-4.067-4.277-5.346-1.288-1.288-7.877-8.876-10.694-6.06-1.477 1.478-2.363 2.588-3.564 4.99-1.978 3.957 2.345 12.889 3.921 16.04 2.32 4.641-4.778 12.331-.357 16.753 5.005 5.004 7.499 6.334 12.12 6.772"/>
      <path d="M80.7496 855.683c2.3824.683 9.9841.278 13.5161-3.254 1.347-1.347 6.3843.374 8.0093-1.252 4.107-4.106 11.085-7.533 17.772-9.761 2.357-.786 26.276-1.007 18.522-8.761-2.757-2.756-15.258-.01-17.521 2.253-1.585 1.585-10.308-.228-12.766 1.001-2.218 1.109-11.4876 6.232-13.2654 8.01-4.2712 4.271-17.5054-2.371-20.7748-4.005-3.1444-1.572-3.2539-3.942-3.2539-7.259 0-16.206 5.1465-11.904 13.2659-20.024.873-.873-.1547-2.157-.5006-2.503-7.5274-7.527-17.1156 2.694-20.7749 10.012-1.3807 2.762.666 7.178-.7509 10.012-3.6973 7.395-11.4714 15.06-3.0036 23.528 8.7278 8.728 12.0998-.699 17.1596.751Z"/>
      <path d="M46.7556 762.129c2.0016-1.619 13.2761-1.548 13.626-1.723 1.5689-.785 8.2261-4.065 7.0479-6.422-4.8277-9.655-12.6777-.989-19.5775-3.289-3.3602-1.12-9.1523-3.057-12.6862-1.879-6.7213 2.24-11.7521 13.311-2.3493 16.445 6.8403 2.28 10.8313-.619 13.9391-3.132"/>
      <path d="M175.009 305.003c-.824-1.497-2.372-2.445-3.065-3.832-1.267-2.534-3.024-3.855-5.518-5.518-8.614-5.742-11.229 11.762-7.05 15.94 3.265 3.266 2.836-10.346 3.065-10.575.432-.433 1.017-.646 1.839-.92.435-.145 1.644-.042 1.839.153 2.881 2.88 3.485 7.051 8.277 7.051.972 0 .977-1.638.613-2.299"/>
      <path d="M162.441 316.498c-2.568 1.358 8.487 17.511 11.035 12.415.829-1.658-7.512-12.111-8.583-13.181-.742-.742-1.835.44-2.452.766"/>
      <path d="M314.464 367.406c2.408-.404 16.053-.923 20.209 3.233 6.13 6.131-2.289 19 .269 26.675 2.295 6.885 6.186 18.344 2.425 25.866-.4.8-2.221 6.132-1.078 7.275.988.988.09 3.862 1.078 4.85 6.528 6.529 1.758 23.839-3.233 28.831-1.259 1.259-.055 4.366-1.078 5.389-1.743 1.743 1.078 8.394 1.078 10.508 0 4.202-3.675 17.169-2.964 18.592 1.352 2.704 4.85 17.095 4.85 19.939 0 3.888-1.43 10.547-2.695 13.472-.792 1.831 2.281 37.277 2.281 40.626 0 1.873-.297 7.8-3.503 6.197-6.242-3.121-2.788-14.644-6.466-18.322-1.676-1.676.357-18.702-.126-20.148-.69-2.072-2.521-7.083-1.347-9.431 1.006-2.011 3.721-8.725 2.425-11.317-2.195-4.391-9.312-21.254-6.197-27.483 1.599-3.197 2.71-6.847 3.233-10.508.546-3.817.585-10.148-1.077-13.472-.927-1.853 4.623-23.259 5.658-25.328.73-1.459-3.087-13.18-4.042-15.089-1.675-3.351.85-17.326 2.425-20.478 1.37-2.739-2.482-11.547-3.233-14.55-.781-3.125 1.316-7.068 0-9.7-.796-1.591-1.917-2.725-3.233-4.041-.544-.544-2.693.002-3.234-.539-7.373-7.373-21.982 13.249-23.711 16.705-.624 1.249-4.331 8.343-6.466 7.275-2.37-1.185-3.234-4.873-3.234-7.814 0-8.369 4.135-12.71 10.509-15.897 1.884-.942 3.94-5.069 6.197-6.197 1.244-.622 3.898-1.473 4.85-2.425 1.734-1.734 6.259-2.163 9.43-2.694"/>
      <path d="M330.723 611.457c4.274 3.202-2.304 16.882-1.709 17.477 1.292 1.292 2.406 5.869 2.964 7.545 3.404 10.211-4.506 16.947-6.466 24.788-1.328 5.309 1.764 14.507-2.964 18.053-2.122 1.592-8.92 4.553-11.586 1.886-3.407-3.407 2.963-10.069 2.963-13.202 0-14.852 3.046-13.636 8.353-24.25 1.574-3.149-.605-15.694-2.155-17.245-2.226-2.225 1.433-5.865 1.977-8.585 1.33-6.646 2.688-10.911 8.623-6.467"/>
      <path d="M327.423 694.689c5.654 3.796-4.54 16.018-1.886 23.98 4.134 12.401 5.053 27.347-.539 38.531-1.371 2.743-6.946 8.412-10.777 4.58-5.789-5.788 2.155-17.447 2.155-24.788 0-4.025-2.548-10.755-4.311-14.281-2.705-5.411 2.715-25.618 5.928-28.83 2.621-2.622 7.815-.277 9.43.808"/>
      <path d="M116.692 811.719c-.066-11.203 13.243-7.969 20.478-11.587 5.643-2.821 11.221-.808 16.167-.808 6.712 0 28.388-7.361 32.333-5.389 6.343 3.172-6.972 7.511-8.622 9.161-2.028 2.028-.755 6.171-2.964 7.275-7.934 3.967-5.909-5.677-18.053 6.467-2.167 2.167-8.917-4.17-11.586-3.503-6.175 1.544-4.974 8.229-10.778 2.425-4.329-4.329-16.922 4.798-16.975-4.041"/>
      <path d="M230.128 783.427c1.525-2.802 2.3-6.341 4.311-8.353.281-.281-3.607-8.841-.538-12.933 3.353-4.472 6.736-5.389 10.508-9.161 2.307-2.307 2.973-5.668 4.58-7.275 2.483-2.483 4.598-3.789 6.737-5.928 1.447-1.448 9.206-13.157 12.124-10.239 1.042 1.042 4.231 16.517 3.234 17.514-1.247 1.247-3.917 1.223-5.12 2.425-1.169 1.169-.747 3.442-1.616 4.311-.964.963-2.756.87-3.772 1.886-2.436 2.436-2.571 6.343-5.12 8.892-1.641 1.641-3.803 2.995-5.119 4.311-1.92 1.92.985 5.574-.27 8.083-1.069 2.139-11.862 11.859-14.011 12.934-3.905 1.952-7.92-2.806-5.928-6.467"/>
      <path d="M287.355 600.381c-.645.948-5.821 10.076-2.963 12.934.908.908 2.131 2.059 2.425 3.233 2.494 9.978-6.843 23.229-3.773 29.369.887 1.774 5.47 13.661 9.97 9.161 12.645-12.645-2.923-29.949 6.736-39.608.679-.679 4.217-7.369 3.233-8.353-1.034-1.033-3.518-.823-4.311-1.616-4.537-4.537-5.833-13.177-11.317-5.12"/>
      <path d="M285.787 495.47c1.842 3.684-1.484 10.236.269 13.741 1.022 2.043 3.435 3.638 4.581 5.928 2.06 4.122-7.951 10.773-2.695 21.286 1.985 3.971-5.108 9.571 1.617 12.934 1.471.735 2.046 2.504 3.503 3.233 1.994.997 5.19-.066 7.005.539.949.316 3.377 4.239 4.311 3.772 6.558-3.279-4.434-15.997-5.389-18.861-5.477-16.432 9.578-22.583 7.814-29.639-1.31-5.242-6.298-4.244-8.353-8.353-1.554-3.108.362-5.027-2.425-7.814-.741-.741 1.292-21.072-2.425-24.788-4.241-4.242-5.983-.91-8.622 4.041-2.91 5.462-3.043 16.278.809 23.981"/>
    </g>
    <g id="Pavement" class="cement">
      <g id="Outdoors">
        <path d="m771.17 115.843-23.967-23.9312-38.201.0569-2.152 4.5459.06 19.3834"/>
        <path d="M823.868 83.1559v26.1781h40.763V83.1559Z"/>
        <path d="M827.051 265.848V155.851h37.83v109.997Z"/>
        <path d="M910.468 108.017V88.4499h16.313v19.5671Z"/>
        <path d="M907.176 146.628v-26.03h16.411v26.03Z"/>
        <path d="M901.121 170.678v-10.717h21.225v10.717Z"/>
        <path d="M900.727 190.235v-10.788h21.746v10.788Z"/>
        <path d="M574.18 738.154v55.964h35.574l52.986-24.776.175-31.188Z"/>
        <path d="M447.951 159.034v94.911h67.476v-94.911Zm29.993 13.414c2.631.058 5.28.645 7.842 1.245 2.963.695 6.116 1.36 8.56 3.172 1.334.988 2.651 2.344 3.014 3.963.39 1.74-.457 3.572-1.11 5.231-.902 2.295-2.926 4.039-3.805 6.342-.806 2.111-1.153 4.402-1.268 6.659-.124 2.437.099 4.912.634 7.292.433 1.926 1.587 3.635 2.06 5.55.395 1.604 1.133 3.34.635 4.915-.495 1.57-2.031 2.634-3.329 3.646-1.94 1.511-4.553 1.988-6.501 3.487-1.718 1.323-3.034 3.106-4.439 4.757-1.734 2.037-2.781 4.728-4.914 6.342-2.136 1.616-4.822 3.527-7.451 3.012-2.676-.526-5.025-3.113-5.867-5.708-.861-2.652.081-5.803 1.428-8.245 1.753-3.177 5.944-4.361 8.085-7.291 1.813-2.483 3.13-5.403 3.805-8.402.64-2.836.678-5.861.159-8.721-.59-3.244-1.872-6.416-3.646-9.195-1.488-2.332-4.218-3.695-5.709-6.025-.921-1.438-2.131-3.064-1.902-4.756.223-1.644 1.688-2.962 3.011-3.963 2.31-1.746 5.219-2.785 8.087-3.171.869-.118 1.744-.156 2.621-.136"/>
        <path d="M446.391 364.567V261.439h68.645v103.128Z"/>
        <path d="M446.704 425.667v-53.676h68.817v53.676Z"/>
        <path d="M446.391 472.262v-37.991h68.98v37.991Z"/>
        <path d="M446.303 583.478V479.384h69.224v104.094Z"/>
        <path d="M446.112 590.932v75.385l43.839 44.058h25.488V590.932Z"/>
        <path d="M472.768 738.911v15.024l-3.084 2.312v43.457l3.084 2.772v8.899h70.467v-8.899l3.084-2.772v-43.457l-3.084-2.312v-15.024Z"/>
        <path d="M881.266 430.638v59.335h7.477l4.716-3.16 4.751-.012-.001-50.771-10.188-5.392Z"/>
        <path d="M899.424 632.125v-96.601h31.733v96.601Z"/>
        <path d="M827.189 688.369V578.397h37.692v109.972Z"/>
        <path d="m768.848 138.636-.013-15.547h-52.238l.121 15.547"/>
        <path d="m200.697 653.767 7.892-20.946 7.736 2.914-2.166 5.75 2.613.985-2.483 6.59 1.825.687-3.242 8.606Z"/>
      </g>
      <g id="Garage">
        <path d="m713.909 138.53.306 147.744h-59.291v11.087h23.662v9.911h-34.885v-42.676h22.778V149.199h-70.597v59.451l-6.407.131.064-10.44-3.871-.08.033-12.249-9.61-8.672h-23.792v124.959h16.532l.003 54.312h-24.575v37.724h71.244v55.185h-71.244v38.149h66.334l-.325 103.897h-35.889v-9.508h11.127v-12.404h-33.28v74.297h34.136v48.654l53.259.153v-23.595h47.224v-97.231h24.856v-10.437h-24.856v-.009h-6.569v-2.862h-25.838v-12.111h22.823v1.042h-21.715v10.016l60.751.173v-12.372l.972-.002v12.374h.288v147.835h51.794v-29.25h25.546v-18.657h32.292v-38.553h-56.488v-61.058h80.636v-.161h.434v-32.682h17.664v-59.124h-17.664v-18.937h17.664v-50.673h-17.664v-18.176h17.664v-58.991h-17.664v-35.578h-51.274v242.439h-83.191v11.765l-1.085.002v-6.464l-22.279-.002v-20.234h-5.35v-21.634h-47.061v-14.247l5.064-.152-.128-12.706-4.936-.044v-15.511h54.179v-49.984h-54.179l.029-63.067 45.782-.133v-7.109h60.703v-41.022h24.449v-60.784h54.557v-38.238h-31.852v-18.282h-24.777l-.176-29.802ZM589.702 271.395h33.902v13.217h-33.902Z"/>
        <path d="M538.545 407.43h7.064v6.801h14.375v15.2h-14.476v7.164h-6.66Z"/>
      </g>
    </g>
    <g id="Ramps" class="road_small road_tarmac">
      <g id="Big_Ramps" class="road_medium">
        <path d="M863.311 161.428h-36.199" style="stroke:url(#linearGradient223)"/>
        <path d="M858.631 231.41v34.383" style="stroke:url(#linearGradient221)"/>
        <path d="M858.554 614.967v-38.353" style="stroke:url(#linearGradient225)"/>
        <path d="M863.392 681.998h-35.979" style="stroke:url(#linearGradient227)"/>
      </g>
      <path d="M657.146 507.156v-17.127" style="stroke:url(#linearGradient237);stroke-width:10.671096"/>
      <path d="M560.028 278.461h18.778" style="stroke:url(#linearGradient231)"/>
      <path d="M576.427 191.943h9.267" style="stroke:url(#linearGradient229)"/>
      <path d="M548.592 421.971h11.334" style="stroke:url(#linearGradient233)"/>
      <path d="M573.993 575.758h11.505" style="stroke:url(#linearGradient235)"/>
      <path d="M685.17 566.697h16.863" style="stroke:url(#linearGradient239)"/>
      <path d="M863.363 415.883v12.61" style="stroke:url(#linearGradient219)"/>
      <path d="M669.538 289.549h-9.071" style="stroke:url(#linearGradient242)"/>
      <path d="M669.792 552.83h-9.12" style="stroke:url(#linearGradient246)"/>
    </g>
    <g id="Train_Tracks" class="railroad" data-name="Train Tracks">
      <path d="m10.1684 777.275 94.8586-4.009s33.927-.892 50.327-4.767c12.063-2.851 24.028-7.088 34.676-13.434 11.217-6.686 21.158-15.631 29.825-25.398 8.653-9.751 16.748-20.495 21.634-32.581 4.927-12.188 7.143-38.784 7.143-38.784l3.372-309.83s-1.708-14.639-3.879-21.637c-2.558-8.246-5.971-16.356-10.66-23.604-5.562-8.598-13.119-15.763-20.353-23.011-5.55-5.561-11.771-10.409-17.624-15.649-9.738-8.719-20.22-16.692-29.107-26.277-5.933-6.399-11.58-13.191-16.026-20.699-3.926-6.63-7.066-13.799-9.225-21.195-2.436-8.344-4.093-25.753-4.093-25.753l-.926-169.51228"/>
      <path d="m10.389 782.469 95.217-4.062s34.49-1.126 51.199-4.974c12.647-2.913 25.241-7.099 36.494-13.564 11.928-6.853 22.663-15.987 31.904-26.176 9.505-10.48 18.3-22.16 23.599-35.278 5.088-12.597 7.224-40.113 7.224-40.113l3.533-309.96s-1.218-14.713-3.23-21.766c-2.365-8.29-5.787-16.372-10.271-23.735-5.182-8.511-12.055-15.922-18.924-23.14-5.54-5.822-11.902-10.801-17.884-16.168-9.756-8.753-20.226-16.755-29.367-26.148-6.015-6.183-12.015-12.531-16.675-19.79-4.219-6.575-7.591-13.765-10.004-21.195-2.698-8.31-4.872-25.753-4.872-25.753l-.146-169.51228"/>
      <path d="m-13.7689 921.78 1170.2089 1.263"/>
      <path d="m-13.7689 928.832 1170.2089 1.263"/>
    </g>
    <g id="Buildings" class="building">
      <path d="M897.746 189.311v6.416h-2.97v-6.416Z"/>
      <path d="M897.651 181.8v6.965h-2.875V181.8Z"/>
      <path d="M930.039 167.457v5.781h-4.661v-5.781Z"/>
      <path d="M873.667 85.0327v2.9803h-8.694v18.437h27.889V90.2337h.561v-5.201Z"/>
      <path d="M930.029 157v5.755h-4.577V157Z"/>
      <path d="M925.189 147.789v6.319h-6.024v-6.319Z"/>
      <path d="M914.199 147.757v6.222h-6.03v-6.222Z"/>
      <path d="M926.684 68.11v6.3334h-6.264V68.11Z"/>
      <path d="M917.089 68.1376v6.3017h-6.457v-6.3017Z"/>
      <path d="m446.082 442.08 7.447-7.388 4.744 4.78-7.447 7.389Z"/>
      <path d="M492.586 250.152h13.931v-9.243h-13.931Z"/>
      <path d="M710.988 527.763h-10.462v3.731h10.462Z"/>
      <path d="m1007.71 769.351 10.28-2.946-1.5-5.241-10.28 2.947Z"/>
      <path d="m1008.6 771.476 10.08-2.878 1.54 5.394-10.07 2.878Z"/>
      <path d="M151.862 70.2451v13.9207h9.234V70.2451Z"/>
      <path d="M422.81 714.65v3.164l6.329 1.26v-5.659Z"/>
      <path d="m605.096 79.9515 1.638-5.0988-6.476-.7444-.93 2.9774Z"/>
      <path d="M405.364 473.9v3.164l6.329 1.26v-5.659Z"/>
      <path d="m186.72 635.74 4.699-13.075 10.417 3.744-4.699 13.074Z"/>
      <path d="M109.891 582.628h6.811v5.676h-6.811Z"/>
      <path d="m114.053 568.345 7.757.851-.779 7.102-7.757-.851Z"/>
      <path d="m140.54 565.791 9.081.283-.136 4.359-9.081-.284Z"/>
      <path d="m183.86 643.809-3.575 9.908 13.101 4.727 3.575-9.908Z"/>
      <path d="m150.561 636.863-6.129 9.193 4.762 3.175 6.129-9.193Z"/>
      <path d="m140.622 652.536 2.29 10.808 5.598-1.185-2.29-10.809Z"/>
      <path d="m127.294 667.765 11.048.005.003-5.723-11.049-.005Z"/>
      <path d="m127.477 647.078 3.166-8.58 5.764 2.127-3.166 8.58Z"/>
      <path d="M122.574 651.674v9.091h3.983v-9.091Z"/>
      <path d="M789.663 732.327h10.686v5.789h-10.686Z"/>
      <path d="M788.55 743.978h7.273v6.753h-7.273Z"/>
      <path d="M782.317 751.028h6.085v5.343h-6.085Z"/>
      <path d="M774.451 765.498h12.615v2.672h-12.615Z"/>
      <path d="M774.228 756.593h2.894v-13.654h-2.894Z"/>
      <path d="m801.24 744.72.371 12.764 2.974-.087-.371-12.763Z"/>
      <path d="M789.812 708.655h10.612v5.714h-10.612Z"/>
      <path d="m772.225 708.061-1.633 10.167 3.024.485 1.633-10.166Z"/>
      <path d="m1001.3 425.831 3.61-4.263 8.11 6.996-3.65 4.228Z"/>
      <path d="m1014.91 425.831-2.79 4.344 5.54 3.551 2.78-4.345Z"/>
      <path d="m1026.47 433.946 4.1-2.377-2.26-3.895-4.1 2.377Z"/>
      <path d="m1017.53 442.553 6.23-2.213 1.88 5.274-6.23 2.214Z"/>
      <path d="M473.795 104.22v-7.7579h3.384v7.7579Z"/>
      <path d="M352.769 401.001v-11.06h-5.942v11.06Z"/>
      <path d="M352.769 416.764v-11.059h-5.942v11.059Z"/>
      <path d="M352.026 486.09v-11.059h-5.942v11.059Z"/>
      <path d="M361.682 484.852v-11.059h-5.942v11.059Z"/>
      <path d="M382.893 501.853v-11.059h-5.943v11.059Z"/>
      <path d="M369.275 403.642v-9.079h5.034v9.079Z"/>
      <path d="M367.954 483.119v-9.079h5.035v9.079Z"/>
      <path d="M932.654 610.768h7.464v3.857h-7.464Z"/>
      <path d="M494.968 87.7129V83.004h3.942v4.7089Z"/>
    </g>
    <g id="Limit" class="map_border">
      <path d="m75.6469 27.5657 32.1051-13.6815-.075-12.73838 58.9-.10075V13.8489l10.636 8.546 139.573.9248 10.325-9.6421.01-12.4266 80.452-.15153V13.3819l10.629 9.6018h597.808"/>
      <path d="m1086.42 758.646-36.66 11.291-39.01 8.53-36.739 7.449-96.386 5.404-71.785 4.546-68.048 10.614-45.401 12.824L654 836.802l-52.854 29.013-49.816 30.879-17.22 9.853-13.949 6.225-25.19 2.73-423.213.098"/>
    </g>
    <g id="Danger" class="danger">
      <path d="m1114.8 758.585-.39-396.123s-.02-12.997-1.7-19.197c-2.32-8.6-6.2-16.939-11.4-24.172-11.53-16.026-30.9-25.202-42.74-40.999-7.86-10.483-13.26-22.705-18.15-34.857-5.58-13.856-10.27-28.247-12.62-42.997-1.53-9.574-.69-19.377-.89-29.069-1.03-49.408-1.65-148.2475-1.65-148.2475h-41.041s.623 98.8395 1.651 148.2475c.202 9.692-.639 19.495.886 29.069 2.35 14.75 7.04 29.141 12.619 42.997 4.895 12.152 10.295 24.374 18.155 34.857 11.84 15.797 31.21 24.973 42.74 40.999 5.2 7.233 9.07 15.572 11.4 24.172 1.68 6.2 1.7 19.197 1.7 19.197l.39 396.123Z"/>
      <path d="M84.9067 915.634s-1.5442-42.934-1.6279-64.411c-.0421-10.802 1.2062-21.618.5662-32.401-.3333-5.618-.7966-11.3-2.2893-16.726-1.616-5.873-5.5538-10.942-7.1324-16.825-1.3237-4.933-1.5933-10.107-1.885-15.207-.6618-11.569 1.5038-23.236.3146-34.763-1.1957-11.592-4.4601-22.894-7.4463-34.158-4.3468-16.397-11.406-32.033-15.2158-48.563-1.0069-4.369-1.7652-8.823-2.0021-13.3-.5374-10.156.4786-20.346 1.332-30.48.9881-11.734.2235-24.038 4.3817-35.055 1.4709-3.897 3.9205-7.56 7.0296-10.332 3.4381-3.065 8.5653-3.638 12.2382-6.418 3.6131-2.734 7.0674-5.955 9.3455-9.872 4.7388-8.148 6.3181-17.824 8.2354-27.053 2.4353-11.722 3.3618-23.734 4.0916-35.684.8192-13.414.067-26.879.3156-40.315.2827-15.279 1.8437-30.553 1.3369-45.827-.4845-14.603-2.7109-29.097-4.1797-43.634-3.5092-34.734-8.6059-69.321-11.0685-104.145-2.0489-28.973-2.8865-58.038-3.0766-87.083-.2959-45.221 3.0152-135.6331 3.0152-135.6331H39.4728s-3.3111 90.4121-3.0152 135.6331c.1901 29.045 1.0277 58.11 3.0766 87.083 2.4626 34.824 7.5593 69.411 11.0685 104.145 1.4687 14.537 3.6952 29.031 4.1797 43.634.5068 15.274-1.0543 30.548-1.3369 45.827-.2486 13.436.5035 26.901-.3156 40.315-.7299 11.95-1.6563 23.962-4.0916 35.684-1.9174 9.229-3.4966 18.905-8.2355 27.053-2.278 3.917-5.7324 7.138-9.3455 9.872-3.6728 2.78-8.8 3.353-12.2381 6.418-3.1091 2.772-5.5588 6.435-7.0297 10.332-4.15815 11.017-3.3935 23.321-4.38165 35.055-.85337 10.134-1.86938 20.324-1.332 30.48.23691 4.477.99517 8.931 2.00211 13.3 3.80984 16.53 10.86904 32.166 15.21584 48.563 2.9862 11.264 6.2505 22.566 7.4463 34.158 1.1891 11.527-.9764 23.194-.3147 34.763.2917 5.1.5614 10.274 1.885 15.207 1.5786 5.883 5.5165 10.952 7.1324 16.825 1.4928 5.426 1.956 11.108 2.2894 16.726.64 10.783-.6083 21.599-.5662 32.401.0837 21.477 1.6279 64.411 1.6279 64.411Z"/>
    </g>
    <g id="Powerline_Towers" class="building">
      <path d="m81.4913 28.75 6.246.056-.056 6.186-6.246-.057Z"/>
      <path d="M101.184 28.806h6.133v6.414h-6.133Z"/>
      <path d="m81.4913 165.396 6.246.056-.056 6.186-6.246-.057Z"/>
      <path d="M101.184 165.452h6.133v6.414h-6.133Z"/>
      <path d="M94.7532 350.939h6.1378v5.99h-6.1378Z"/>
      <path d="M114.502 350.841h5.742v5.989h-5.742Z"/>
      <path d="M84.5668 536.343h5.785v5.784h-5.785Z"/>
      <path d="M104.165 536.457h5.898v5.974h-5.898Z"/>
      <path d="M74.427 721.846h6.118v5.934h-6.118Z"/>
      <path d="M93.896 721.8h6.164v6.027h-6.164Z"/>
      <path d="M74.195 821.263h6.285v6.181h-6.285Z"/>
      <path d="M93.826 821.29h6.286v6.234h-6.286Z"/>
      <path d="M971.69 95.8654h6.056v6.1646h-6.056Z"/>
      <path d="M1108.84 95.8289h6.22v6.0751h-6.22Z"/>
      <path d="M911.765 240.804h6.056v6.165h-6.056Z"/>
      <path d="M933.33 379.73h6.056v6.164h-6.056Z"/>
      <path d="M936.025 511.606h6.056v6.164h-6.056Z"/>
      <path d="M934.159 640.993h6.056v6.165h-6.056Z"/>
      <path d="M943.283 774.735h6.056v6.165h-6.056Z"/>
      <path d="M947.43 908.684h6.056v6.165h-6.056Z"/>
      <path d="m930.086 240.861 5.586-2.338 2.381 5.686-5.587 2.338Z"/>
      <path d="m1004.85 322.679 4.08-4.473 4.55 4.156-4.08 4.473Z"/>
      <path d="m1084.6 366.768 2-5.717 5.82 2.035-2 5.716Z"/>
    </g>
    <g id="Powerlines" class="powerline">
      <path d="M77.166 950.514V823.879l-.157-99.222 20.3072-370.803-12.8459-185.797V-4.99463"/>
      <path d="M96.956 950.514V823.888l-.15-99.087 20.307-370.992-12.983-185.57V-4.99463"/>
      <path d="m918.494 97.7204 56.353.8617h176.583"/>
      <path d="m905.31 184.902 9.497 58.866 21.982 138.33 2.52 132.416-1.956 129.143 9.258 134.212 3.631 132.413v50.376"/>
      <path d="m917.381 184.657 16.613 57.926 75.846 80.658 78.04 41.751 88.31 15.738"/>
    </g>
    <g id="Fence" class="fence">
      <path d="m346.423 326.466-1.409 112.794m-12.606 475.794.52-22.478 6.505-6.479.536-42.621m3.357-267.276.761-60.571m.075-8.126.632-50.604-2.141-8.501"/>
      <path d="M346.194 362.677h4.584m8.589 0h14.144m8.091 0h3.819"/>
      <path d="M343.765 544.666h4.774m7.928 0h14.474m8.426 0h4.893"/>
      <path d="M211.275 347.126h34.695m17.959 0h17.836"/>
      <path d="M474.067 105.125h20.383V88.209h51.835m0-4.5437V51.1365m0-14.2314V23.9352"/>
      <path d="m706.812 113.731-.071-17.016 2.602-4.8331h37.921l15.475 15.4751h54.419V62.6975l5.205-2.3236 10.874-12.0827h79.087l19.658 19.6577v7.0128m.071 7.961-.026 48.6673m-.018 32.173-.028 50.398h-31.842l-11.67 11.67v60.771l3.576 6.973v16.63m0 38.265v5.364l-3.576 4.649v15.914m0 50.067v5.543l10.549 5.543v26.643m0 14.126v11.265h-5.212l-5.337 3.576v4.47m0 33.616 3.039 5.156h15.896m12.525 0h12.208v16.76m0 9.967v55.619m0 5.852v10.535h-38.444"/>
      <path d="m991.591 622.019 23.769 10.581"/>
      <path d="M1050.15 768.21v-8.834m0-12.946v-34.603m0-11.131v-13.094l-14.88-11.119"/>
      <path d="M610.635 737.322H663.7v32.504l-11.588 5.402m-4.287 1.999-37.813 17.626h-36.658V771.28m0-4.465v-29.493h25.857"/>
      <path d="M494.45 88.209v-5.1984"/>
      <path d="M488.853 738.162h-16.834v15.398c-1.029.771-2.057 1.542-3.086 2.313v44.166c1.028.924 2.057 1.847 3.086 2.771v9.315h36.655m10.101 0h25.211v-9.315c1.028-.924 2.056-1.847 3.084-2.771v-44.166c-1.029-.771-2.056-1.542-3.084-2.313v-15.398h-45.199"/>
    </g>
  </g>
  <g id="First_Floor" data-name="First Floor">
    <g id="Structure-1" class="shadow building" data-name="Structure">
      <path d="M683.825 138.53v10.948H552.357v136.724h-7.951v272.502h7.927v134.083h131.534v12.817h143.389V578.382h37.763l4.791-20.574V284.976l-4.791-19.216h-37.824V138.53Z"/>
    </g>
    <g id="Pavament-1" class="cement">
      <path d="M852.367 558.379h-54.821v134.48H685.117v11.494h140.889v-16.288h1.25v-11.787h-1.25v-99.147h26.529v1.251h11.488v-1.251l4.537-19.964V448.568h-16.193z"/>
      <path d="M685.076 149.795h112.621v136.193h54.67v109.994h16.193v-110.84l-4.508-18.132v-1.25H852.55v1.25h-26.605v-98.997h1.25v-12.048h-1.25v-16.186H685.076Z"/>
    </g>
    <g id="Floor-1" class="floor">
      <path d="M781.966 149.795v1.25h-23.109v5.976h-1.721v-5.976h-27.922v4.996h-1.721v-4.996h-10.445v.539h-1.721v-.539h-4.169v8.416h-1.721v-8.416h-27.678v7.289h-1.721v-7.289h-17.201v1.289h-1.72v-1.289H639.79v3.351h-1.72v-3.351h-13.948v6.351h-1.72v-6.351H602.87v10.666h-1.72v-10.666h-16.66v.724h-1.721v-.724H568.55v.724h-1.721v-.724h-12.503v21.63h9.875v-13.591h1.72v.828h8.969v-.828h1.721v2.548h-10.69v12.764h-11.595v2.231h21.962v4.502l1.635 3.962h11.567v1.721h-12.811l-1.924-4.838v20.313l1.942-4.352h12.793v1.721h-11.584l-1.618 3.451v3.967h-22.427v32.375h29.761v1.721h-28.531v10.4h2.485v-2.516h1.72v4.237h-4.205v2.968h6.44v-10h1.72v.809h10.815v1.721h-1.596v.658h-1.721v-.658h-7.498v13.597h7.498v-10.812h9.104v11.597h8.724v-14.382h-9.638v-1.721h9.638v-5.898h-.83v-1.721h2.551v15.455h5.184v3.527h-1.721v-1.806h-3.463v8.267h-10.445v6.764h13.908v-8.41h1.721v10.131h-8.791v3.361h-26.34v4.117h26.34v2.799h17.228v3.937h-37.584v7.907l-9.142 4.961v9.699h-1.721v-10.723l9.143-4.961v-6.883h-18.547v84.975h9.404v-.908h1.828l-.107 15.578h-1.721v-12.949h-5.326v6.238h-2.684v-1.721h.963v-4.517h-2.357v25.402h9.404v-7.885h1.721v7.885h2.22v13.891h2.827v1.72h-12.954v-1.72h8.407v-12.17h-11.625v5.629h-.022v.06h-6.732v3.36l-2.707 4.865v15l2.707 3.687v3.748h5.453l3.967-8.254h13.506v1.721h-12.401l-3.771 7.826v3.717h11.125v9.088h-1.721v-7.367h-9.404v25.724h9.404v-13.789h1.721v31.069h-1.721v-15.559h-9.404v42.113h9.404v-12.882h1.721v23.273h-1.721v-8.67h-9.404v41.338h18.547v-6.648l-9.143-5.748v-6.303h1.721v5.351l9.142 5.748v7.6h31.807v3.684l-24.336.041v7.162h16.465v1.72h-16.75v11.909h16.75v1.72h-16.465v5.354h-1.721v-.569h-9.033v7.586h-2.078v-1.72h.357v-5.866h-7.648v5.866h5.398v1.72h-5.398v1.774h1.891v1.721h-1.891v3.857h3.279v-4.719h1.721v4.719h4.127v-3.857h-1.836v-1.721h3.557v8.775h-1.721v-1.476h-9.127v7.547h9.127v-3.911h1.721v8.1h-1.721v-2.469h-9.127v7.998h9.127v-3.369h1.721v7.735h-1.721v-2.645h-9.127v6.508h9.127v-2.018h1.721v2.018h.49v1.721h-11.338v7.816h2.072v1.721h-2.072v32.841h4.476v.065h10.217v1.721h-4.09v4.222h-1.72v-4.222h-4.407v8.974h13.551v-8.974h-1.357v-1.721h3.078v12.416h-6.668v1.092h-1.721v-1.092h-6.883v.021h-4.476v4.727h11.359v-2h1.721v2h10.713v-15.395h1.721v15.395h154.017v-35.057h1.721v14.58h8.105v-14.58h1.721v14.58h7.648v-14.58h1.721v14.58h1.416v1.721h-20.611v18.756h61.361v-19.408l6.998-7.039-3.029-3.03-3.969 3.967v-2.726l6.998-7.041-3.029-3.03-3.969 3.969v-2.635l6.998-7.039-3.029-3.029-3.969 3.967v-2.822l6.998-7.04-3.029-3.029-3.969 3.967v-2.727l6.998-7.041-3.029-3.027-3.969 3.967v-2.729l6.998-7.039-3.029-3.029-3.969 3.967v-2.727l6.998-7.041-3.029-3.029-3.969 3.969v-2.729l6.998-7.039-3.029-3.029-3.969 3.967v-29.532h1.229v-9.955h-1.229v-3.863h-25.637v9.916h-1.72v-.701h-.918v-1.721h.918v-7.494h-3.447v7.494h.361v1.721h-.361v9.047h-20.735v.736h-1.723v-2.457h3.749v-.568h1.72v.568h3.76v-4.025h1.721v4.025h9.787v-7.326h-16.988v-6.039h1.72v4.318h15.268v-7.494h-9.787v4.728h-1.721v-4.728h-3.76v.56h-1.72v-.56h-11.848v3.176h-1.721v-3.176h-15.002v-1.508h-6.033v5.582h-26.08v4.037h26.08v5.477h-27.801v-15.096h-29.383v-2.33h.112v-.062h17.125v-.885h49.09v-.949h1.101v-10.954h1.721v2.797h7.098v1.721h-7.098v6.436h6.238v-2.995h-4.088v-1.72h5.809v4.715h1.789v-6.436h-.715v-1.721h.715v-7.476h7.545v-15.754h-4.172v-1.721h4.172v-14.008h-2.781v-1.72h3.285v.004h2.599v50.763h53.004v-44.955h14.213v1.721h-12.492v12.994h24.424v-6.971h1.72v8.692h-26.144v28.506h38.184v1.232h8.425v-1.232h5.243V447.318h3.574v1.27h9.752v-1.27h2.965V430.9h-6.75v-3.225h1.062v2.012h5.688v-13.892h-5.688v8.222h-1.062v-9.679h6.75v-17.106h-2.965v-1.25h-9.752v1.25h-3.574V287.238h-5.243v-1.256h-8.425v1.256h-38.016v28.646h25.982v8.547h-1.72v-6.826h-24.262v12.465h16.699v1.721h-18.42v-44.553H743.13v49.633h-1.902v-15.012h-3.777v-1.721h3.777v-15.746h-7.619v-14.443H731.4v4.41h-5.162v-1.721h3.441v-2.689h-6.48v5.65h7.644v1.721h-7.644v2.402h-1.721v-9.773h-13.006v-1.311h-34.127v.998h-1.721l-.023-2.402H643.65v-.059h-.006v-3.423h.006v-.098h2.008v-3.277h1.72v3.277h19.098v-7.533h1.721v7.533h40.004v-7.533h1.72v7.533h17.572v-5.877h1.721v5.877h27.922v-5.877h1.721v5.877h37.59v-3.277h1.273v-8.711h-1.273v-31.655l3.818 3.817 3.029-3.03-6.847-6.888v-2.729l3.818 3.819 3.029-3.03-6.847-6.89v-2.727l3.818 3.816 3.029-3.029-6.847-6.888v-2.729l3.818 3.816 3.029-3.027-6.847-6.891v-2.726l3.818 3.816 3.029-3.029-6.847-6.889v-2.822l3.818 3.816 3.029-3.029-6.847-6.889v-2.634l3.818 3.818 3.029-3.029-6.847-6.891v-2.726l3.818 3.816 3.029-3.029-6.847-6.889v-21.061h-5.702v-1.25zm-199.197 3.476h1.721v2.361h-7.879v1.202h-1.721v-1.202h-8.969v.639h-1.72v-2.359h18.568zm9.674 2.141h5.924v6.299h-1.721v-4.579h-4.203zm68.674.859h1.72v7.217h17.201v-2.342h1.721v4.063h-35.412v-4.889h-8.277v-2.924h1.72v1.203h8.278v4.889h13.049zm-71.596 3.94h1.721v16.826h-1.721zm167.615 0h1.721v2.062h-1.721zm0 4.875h1.721v8.38h12.381v87.889h-12.381v7.256h-1.721v-8.977h12.379v-84.445h-12.379zm-29.643.632h1.721v102.893h-1.721v-20.215h-35.904v-1.721h35.904v-16.078h-10.509v-1.72h10.509zm-29.537 4.452h13.051v43.818h-1.721v-12.012h-9.683v-1.721h9.683V171.89h-11.33zm-75.554.859h1.72v4.303h6.664v1.72h-6.664v1.936h-1.72zm62.006 1.648h6.148v1.723h-4.428v36.689h9.481v1.721h-9.481v25.623h-1.72V212.81h-9.522v-1.721h9.522v-31.24h-8.86v-1.72h8.86zm-46.479 2.655h6.918v2.797h23.459v1.72h-6.412v9.604h-1.721v-9.604h-15.326v9.604h-1.721v-12.401h-5.197zm-33.207 1.131h4.156v3.765h-4.156zm38.404 18.152h1.721v7.978h30.039v1.721h-30.039v24.563h6.676v1.72h-6.676v16.078h30.039v1.721h-14.705v16.869h10.273v1.721H658.46v-12.455l-3.808-6.135h-11.526zm-38.246 9.074h4.156v3.754h-4.156zm-27.308 27.18h4.199v3.824h-4.199zm44.232 17.902h1.721v7.127l8.621 7.348h14.734v3.74h-2.554v-2.094h-13.168l-9.354-8.08zm62.922 8.453h1.721v8.041h22.013v-7.478h1.721v7.478h5.699v1.721h-26.367v6.463h-1.721v-6.463h-9.951v-1.721h6.885zm-79.943.967h4.136v3.742h-4.136zm152.353 14.307h1.721v2.252h-1.721zm-134.728 9.394h5.072v5.283h-5.072zm1.72 1.721v1.842h1.631v-1.842zm-69.804 6.496h1.72v2.281h-7.82v-1.72h6.1zm154.789 3.389h1.72v1.347h5.899l.008 32.555h17.543v9.443h-1.614v15.143h-22.912V327.4h-44.752v4.84l2.117 2.117-1.14 1.076-2.422-2.422h-12.656l-2.424 2.422-1.305-1.377 1.815-1.816v-4.84h-30.899v15.117h15.762v1.721H616.37l-.021-43.717h56.275v-6.723h1.721v1.047h9.945v1.721h-1.006v.615h-1.722v-.615h-7.217v3.799h5.012v1.721h-5.035v9.787h7.705v-12.83h10.359v12.83h7.184v-9.787h-4.87v-1.721h4.87v-3.799h-6.998v.615h-1.721v-.615h-.676v-1.721h13.199v1.721h-.775v7.189h4.6v-7.189h-2.368v-1.721h4.282zm12.365 8.683h1.721v.541h7.644v1.721h-.539v6.809h-3.062v-1.723h1.341v-5.086h-5.384v5.086h1.636v1.723h-1.636v1.941h-1.721v-9.609zm-153.66 2.239h11.103v1.722h-9.383v11.49h31.036v-11.49h-8.7v-1.722h10.42v53.111h-2.051v-1.721h.331v-10.012h-13.969v10.012h10.162v1.721l-28.943.053-.006-24.614h1.72v9.194h13.514v-21.321h-13.514v7.942h-1.72v-10.559zm15.648 0h3.531v1.722h-3.531zm-27.994 10.306h1.721v11.77h-1.721zm166.006.969h1.721v4.443h11.046v1.721h-12.767zm102.217 12.389h1.72v1.986h10.194v26.838h-1.723v-25.117h-10.191zm-4.336 1.986h1.506v1.721h-1.506zm-263.887 1.125h1.721l.107 16.416h-1.721zm-8.01 8.492h2.684v7.979h-2.684v-1.721h.963v-4.537h-.963zm108.768 4.008h4.222l3.366 3.365v6.766l-2.858 2.861h-5.759l-3.28-3.281 1.215-1.217 2.777 2.777h4.334l1.85-1.851v-5.342l-2.357-2.357h-3.51zm-2.795.924 1.217 1.217-2.19 2.189-1.217-1.217zm-97.856 6.832h1.721v15.523h-1.721zm118.834 4.242h22.235v10.129h-1.721v-8.408h-19.803l-2.172 2.172-1.216-1.219zm35.344 1.52h22.912l-.015 10.123h-1.721v-2.032h-19.438v1.67h-1.72zm-94.092.361h10.953v1.721h-9.232v2.296h-1.721zm13.981 0h10.623l5.443 5.449-1.217 1.215-4.941-4.943h-9.908zm204.24 4.926h1.723v17.423h-1.723zm-218.221 1.754h1.721v7.281h31.523v-3.289l-1.884-1.887 1.217-1.217 2.388 2.391v31.744h-1.721v-8.098h-28.56v22.356h8.291v1.72h-18.684v-1.72h6.393v-22.356h-46.797v22.356h7.848v1.72h-9.569V371.07h9.569v1.721h-7.848v15.935h30.691v-15.935h-7.912v-1.721h23.334zm49.961.939 1.176 1.256-2.008 1.883v7.841h30.133v-4.244h1.721l.017 37.213-33.591-.013v-8.803h1.72v7.082h11.701v-13.141h-13.439v-2.576h14.785v-11.768h-13.047v6.573h-1.72v-18.91zm-81.379 5.877h2.518v1.721h-2.518zm125.528.859h1.72v2.914h19.438v-2.914h1.721v29.114l-2.584 2.55-1.209-1.224 2.072-2.045v-1.205h-21.176zm124.111 14.016h1.723v13.551h-16.957v7.314h-1.721v-9.035h16.955zM648.909 405.24h1.721v10.015h-7.943v-1.72h6.222zm-64.662 8.295h19.881v1.72h-19.881zm48.897 0h3.713v1.72h-3.713zm73.883 1.594 1.218 1.216-.986.987v7.086h.379v1.72h-2.1v-9.519zm3.572 0 1.49 1.49v9.029h.99v3.471h-1.72v-2.981h-1.369v-1.72h.378v-7.086l-.988-.987zm106.332 1.146h1.721v11.4h-1.721zm-99.877 7.645h10.027v7.062h15.123v1.721h-16.843v-7.063h-8.307zm-149.223 5.767h9.569v1.721h-7.848v9.078h-1.721zm16.416 0h19.084v1.721h-19.084zm25.18 0h17.754v1.721h-6.832v22.396h28.764v-8.414h1.72v19.481h-1.72v-8.446h-46.59v17.207l-10.389-.019v-1.721h7.949v-15.467h-30.531v15.467h7.848v1.721h-9.569V445.39h1.721v8.414h47.443v-22.396h-7.568zm21.731 0h6.494v1.721h-6.494zm10.865 0h8.81v9.608h-1.72v-7.887h-7.09zm76.029 2.901h1.721v7.189h-1.721zm-6.693.494h1.72v3.347h-1.72zm-48.325 1.617h21.432v1.721h-3.664v28.451h14.211v-15.307h1.723v23.789h-1.723v-6.031h-30.258v9.641l2.846 2.845-1.217 1.217-3.35-3.35v-27.742h1.721v14.938h14.326V436.42h-14.326v8.431h-1.721zm25.024 0h8.678v9.414h-1.723v-7.693h-6.955zm129.053 3.068h1.72v6.057h16.754v70.084h-10.176v2.31h-1.72v-2.31h-4.512v-1.721h14.688v-66.642h-16.754zm-91.75.774h16.843v1.72h-15.123v6.653h5.59v3.931h-1.72v-2.211h-6.799v-1.72h1.209zm-14.002 2.843h1.72v3.467h-1.72zm-1.596 5.53h9.563v1.72h-7.842v2.211h-1.721zm0 8.461h1.719v1.484h19.467v-1.484h1.72v16.873h-8.886v3.306h7.82v1.721h-7.82v7.379h7.82v1.721h-4.401v5.14h4.401v1.721h-4.401v5.275h4.401v1.721h-4.401v6.148h5.957v-.006h2.442v1.721h-1.568v9.719h-17.086v31.215h-9.708v-8.66h-4.644v8.66h-3.316v-.022h-9.121v-1.72h9.121v-2.854h-4.75v-1.721h4.75v-9.406H692.8v12.758h-11.517v-12.758H674.8v9.406h4.418v1.721h-4.976v2.854h9.894v1.72h-9.894v.881h-1.721v-5.16h-1.799v.004h-5.498v-1.721h5.346v-22.689h-54.905v-8.055h1.721v3.826h32.643v-4.625l-3.266-3.275 1.051-.965 3.244 3.506h12.045l3.949-4.15 1.049 1.029-1.049.926v1.769h5.231v3.303h-1.721v-1.582h-3.51v5.172h3.51v-1.338h1.721v1.338h37.474v-15.176h-6.502v-1.721h6.502zm-60.65 14.662h1.72v7.113l-9.992 9.814h-7.959v-1.72h7.244l8.987-8.807zm-66.737 1.855h4.489v1.721h-4.489zm27.051 0h7.959v13.352h9.795v1.72h-11.516v-13.351h-6.238zm85.586 5.797h1.723v10.277h-23.78l-3.101-3.099 1.217-1.217 2.595 2.596h21.346zm-127.182 9.219h11.225v1.721h-9.504l-.133 9.544h30.824l.133-9.544h-8.793v-1.721h10.514v10.506h.025l-.019 32.752h-1.727v-3.008h-30.824v10.812h8.713v1.721h-10.434V514.91h1.721v8.523h14.674v-21.566h-14.674v8.056h-1.721zm15.715 0h3.319v1.721h-3.319zm68.778 2.176h1.72v2.478l-1.261 1.256v6.959l-.866.869 1.621 1.623h7.106l1.129-1.127-1.992-1.988 1.701-1.693v-8.377h1.72v9.089l-.984.981 1.992 1.988-2.853 2.848h-8.53l-3.341-3.342 1.576-1.582v-6.963l1.262-1.256zm-36.659 11.22h22.452v1.721h-20.731v3.93h-1.721zm58.03 0h24.89v1.721h-24.89zm48.728 21.799h12.26v1.721h-10.539v3.656h-1.721zm-106.68 2.801h1.721v18.072h9.041v1.723h-10.762zm106.68 5.373h1.721v2.365h.644v1.721h-.644v4.947h4.086v-4.947h-1.074v-1.721h2.796v6.668h1.29v1.721h-7.098v.215h-1.721v-7.742zm-122.047 3.779h1.725l-.004 5.635h-10.514v-1.721h8.793zm-17.22 3.914h4.099v1.721h-4.099zm58.205 5.041h6.32v1.721h-6.32zm91.853 23.686h1.721v11.65h-1.721zm13.569 5.176h1.72v3.316h-1.72zm22.156 2.74h1.72v98.24h-5.886v-1.721h4.166v-38.003h-5.158v-1.721h5.158V584.98h-.918v-1.721h.918zm-35.725 6.715h1.721v50.08h21.461v1.721h-2.266v15.185h-1.721v-15.185h-17.474v15.611h-1.721zm9.82 1.213h1.721v.718h21.098v1.721h-.361v3.025h-1.721v-3.025h-11.197v19.566h11.197v-14.257h1.721V619.9h-1.721v-13.633h-11.297v19.721h11.297V622.3h1.721v5.409l-27.602-.008.021-35.485h1.721v12.276h11.221V584.98h-11.221v4.707h-1.721v-6.428h5.123zm-141.955 4.923 1.215 1.217-6.791 6.793-1.217-1.217zm-28.994 4.182h1.721v3.02h-4.596v6.103h3.637v1.721h-3.637v5.39h3.637v1.721h-3.637v5.569h3.637v1.72h-3.637v5.567h3.637v1.72h-3.637v5.205h3.637v1.721h-3.637v.899h-2.39v-1.721h.67v-37.336h4.595zm15.584 9.408 1.217 1.217-1.68 1.68v31.228h-1.72v-31.941zm171.283 30.354h2.129v1.721h-2.129zm-15.912 6.328h1.721v10.578h-1.721zm-184.588 2.082h10.489v5.49h16.545v-4.178h1.72v5.899h-8.009v25.953h-1.721v-5.437h-18.262v-22.004h1.721v6.697h6.285v-.76h1.721v4.01h.4v1.721h-2.121v-3.25h-6.285v11.865h16.541v-8.615h-5.705v-1.721h5.705v-8.459h-8.535v2.289h-1.721v-7.779h-6.285v.943h-1.721v-.943h-.762zm200.5 31.314h2.129v1.721h-2.129z"/>
    </g>
    <g id="Ramps-1" class="road_tarmac road_small" data-name="Ramps">
      <path d="M657.255 489.21003v13.15223" style="stroke:url(#linearGradient84);stroke-width:10"/>
      <path d="M593.02 297.752h-13.174" style="stroke:url(#linearGradient187)"/>
      <path d="M654.122 289.83h11.914" style="stroke:url(#linearGradient190)"/>
      <path d="M589.575 278.805h-29.398" style="stroke:url(#linearGradient194)"/>
      <path d="M574.675 192.269h15.908" style="stroke:url(#linearGradient192)"/>
      <path d="M711.712 567.025h-25.719" style="stroke:url(#linearGradient185)"/>
      <path d="M573.563 575.928h16.312" style="stroke:url(#linearGradient183)"/>
      <path d="M592.926 547.158h-13.025" style="stroke:url(#linearGradient180)"/>
      <path d="M548.483 422.437h16.322" style="stroke:url(#linearGradient178)"/>
      <path d="M583.857 422.437h12.942" style="stroke:url(#linearGradient175)"/>
      <path d="M641.809 422.354h-13.025" style="stroke:url(#linearGradient173)"/>
      <path d="M672.885 422.437h13.19" style="stroke:url(#linearGradient169)"/>
      <path d="M863.364 416.192v12.605" style="stroke:url(#linearGradient240)"/>
      <path d="M654.614 553.027h12.506" style="stroke:url(#linearGradient244)"/>
    </g>
  </g>
  <g id="Second_Floor" data-name="Second Floor">
    <g id="Structure-2" class="shadow building" data-name="Structure">
      <path d="M552.242 149.783v136.225h-7.941v272.691h8.001v134.16l245.505.01v-133.83h54.989V448.858h16.527v-53.269h-17.089V285.861h-54.427V149.783Zm101.016 190.75h8.169l5.72 5.748v8.211l-5.72 5.749h-8.169l-5.721-5.749v-8.211zm.457 73.049h7.368l2.522 2.522h28.601l2.815 2.791v7.215l-2.878 2.876H663.49l-2.589 2.588h-7.232l-2.587-2.588h-28.387l-2.961-2.961v-7.13l2.793-2.791h28.646zm-81.455 2.522h30.392l2.815 2.791v7.215l-2.878 2.876h-30.158l-2.961-2.961v-7.13zm80.918 68.909h8.152l5.706 5.741v8.202l-5.706 5.744h-8.152l-5.707-5.744v-8.202z"/>
    </g>
    <g id="Floor-2" class="floor" data-name="Floor">
      <path d="M566.468 287.971v7.776l-9.466 5.148-.005 41.907h-1.719v-11.405l-9.359-.015v39.172h9.359v-13.148h1.719v14.867h-11.078v33.674h-7.743v5.132l-2.244 4.169v13.567l2.244 4.173v5.454h7.743v33.687h11.116v16.555h-1.719v-14.836h-9.397v39.059h9.397v-12.451h1.719v25.706h-1.719v-8.274h-9.397v40.224h18.545v-8.449l-9.148-5.034v-5.557h1.719v4.513l9.149 5.033v9.494h31.125v-11.673h5.453v1.719h-3.734v9.954h27.269v-9.954h-4.641v-1.719c28.766 0-39.662-.026 41.057-.026v11.699h9.889v-5.69h1.72v5.69h34.855v-3.34h1.719v3.34h23.355v-8.983h-7.913v3.176h3.963v1.719h-5.682v-4.895h-13.611v.838l-.112.503v1.581h-1.719v-2.084h-3.704v-8.952h-3.323v6.967h.843v1.719h-13.964v-1.719h9.924v-14.084h-6.881v12.455h-10.616v-12.455h-7.134v14.084h9.889v1.719h-9.889v.744h-1.719v-14.723l-45.94-.022v-1.719h5.949v-13.428h-14.416v13.428h5.622v1.719h-7.341v-34.759h8.308v1.72h-6.589v13.508h29.454v-4.676l-1.246-1.242 1.216-1.217 1.204 1.204h15.07l11.565-11.566h24.139v-9.915h4.641v1.719h-2.922v8.196h3.357v-4.603h-1.638v-1.719h4.99v1.719h-1.633v4.603h3.794v-8.196h-3.536v-1.719h3.536v-23.328h-2.676v-1.719h2.676v-83.08h-3.653v-1.719h3.653v-22.643h-2.853v-1.719h2.853v-8.059h-4.069v4.706h1.216v1.72h-3.993v-1.72h1.058v-4.706h-2.592v8.059h2.811v1.719h-4.53v-9.778h-3.546v.62l-1.719-.001v-2.003h-20.1l-11.379-11.048H650.85l-2.757 2.806-1.217-1.212.774-.774v-7.697h-29.547v14.763h7.516v1.719l-9.235-.001v-34.886l7.323.001v1.719h-5.604v14.148h14.514v-14.148h-4.445v-1.72l44.603.009v-14.98h1.719v1.651h9.305v1.719h-9.305l.043 15.392h7.065v-13.645h10.345v13.645h7.221v-15.392h-9.769v-1.719h13.972v1.719l-.602.034v6.936h3.297v-6.97h-.631v-1.719l3.962.001v-1.652h1.719v2.507h22.495v-8.341h-7.113v2.922h4.092v1.72h-5.811v-4.642h-13.663v2.964h-1.719v-2.964h-34.903v2.964h-1.719v-2.964h-10.474v10.16h-34.129l-.502.123h-6.86v-1.72h5.423v-8.563h-26.809v8.564h16.938v1.719h-18.657v-10.283zm4.254 6.038h21.98v7.852h-21.98v-1.719h20.26v-4.414h-20.26zm-1.792 14.172h10.349v1.72h-8.63v10.353h12.297v-11.468h4.543v11.468h12.966v-10.353h-8.613v-1.72h10.333v23.697h-1.72v-9.482h-9.572v5.932h-1.719v-5.932h-1.675v19.972h12.966v-6.846h1.72v21.622l-1.053.021h-18.176v-11.501h-12.297v9.606h7.719v1.719h-9.438v-20.733h1.719v6.546h12.297v-20.406h-12.297v8.936h-1.719zm23.887 18.195h1.72v12.541h3.283v1.72l-5.003-.001zm-3.653 4.956h1.719v8.445h-1.719zm52.924 8.625 1.217 1.217-2.488 2.488-8.816.001v-1.72h8.102zm11.17.576h8.169l5.72 5.748v8.211l-5.72 5.749h-8.169l-5.721-5.749v-8.211zm-97.979 7.362h1.719v3.963h-1.719zm139.544 6.792h1.719v3.093l-21.571.001-1.581 1.581-1.217-1.212 2.085-2.089 20.565.001zm-77.721 2.843h23.164l10.305 9.985-.051 26.076h-1.719v-2.326h-28.49v15.046h7.027v1.72h-17.887v-1.72h7.604v-9.708h-21.061v9.708h6.455v1.72l-25.133-.001-1.913-1.913 1.216-1.216 1.414 1.41h11.794v-7.727h-.624v-1.719h.624v-24.45h-.624v-1.719l27.899-.018zm48.13 7.623 1.216 1.216-1.186 1.186v10.486l5.141-.061v-9.227h11.775v1.595h6.1v-1.595h8.218v6.606h-1.719v-4.887h-4.78v4.887h-1.719v-3.292h-6.1v3.292h-1.719v-4.887h-8.337v7.508h8.337v-.708h1.719v.708h6.1v-.708h1.719v.708h4.78v-.708h1.719v1.639h2.058v1.719h-2.058v17.233h-1.719v-16.384h-9.525v3.558l-.077.534h-1.685l-.101-.534h-2.585v14.519h2.686v-1.217h1.719v2.936h-4.405v5.036h13.973v-5.1h1.719v6.819h-32.953v-19.584h1.719v17.865h11.154v-24.832l-11.154.06v1.857h-1.719v-16.542zm-95.756 5.542 17.115.001v1.719h-.62v4.281h-1.719v-4.281h-1.921v4.281h-1.719v-4.281h-9.416v5.922h14.775v7.453h-1.719v-5.733h-1.921v5.733h-1.719v-5.733h-9.416v7.375l14.775-.001v6.997h-1.719v-5.277h-1.921v5.277h-1.719v-5.277h-9.416v7.714h16.301v1.719h-16.301l.023.63 1.085 1.085-1.212 1.217-1.616-1.617zm114.014 17.111h1.719v8.901h-1.719zm-34.689 8.901h1.719v11.323h-8.075v-1.719h6.356zm-15.785 9.604h3.838v1.72h-3.838zm20.699 7.271h7.368l2.522 2.522h28.601l2.815 2.791.029 1.539h-21.865v4.349l21.865.095-.029 1.232-2.878 2.876H663.49l-2.589 2.588h-7.232l-2.587-2.588h-28.387l-2.961-2.961-.109-1.242h21.606v-4.36l-21.497-.083v-1.445l2.793-2.791h28.646zm-51.063 2.522 2.815 2.791v1.528h-21.383v4.443h21.383v1.244l-2.878 2.876h-30.158l-2.961-2.961v-7.13l2.79-2.791zm-25.336 20.409h50.022v1.719h-7.027v4.998h1.624v1.719h-1.624v8.647h2.51v-5.458h-1.371v-1.719h4.341v1.719h-1.251v5.458h2.583v-8.647h-3.15v-1.719h4.869v3.189h8.871v2.342h6.98v1.719h-6.98v1.531h-1.719v-3.873h-7.152v5.458h14.256v-2.135h1.719v2.135h4.271v-15.364h-7.016v-1.719h8.735v40.491l-9.716 9.887h-8.075v-1.719h7.357l8.715-8.876v-18.608h-6.836c0 15.684-.026-8.563-.026 14.548h-3.463v-1.719h2.399v-8.084h-2.794v4.59h1.208v1.719h-4.135v-1.719h1.208v-4.59h-2.923v8.084h3.228v1.719h-5.602v-5.69h-2.553v-1.719h2.553l-.013-7.139h-13.4l-.018 7.139h7.87v1.719h-9.589v-3.615h-7.396v-5.243h-14.295v3.524h.83v1.719h-.83v9.213h9.258v1.719h-14.621v-1.719h1.121V449.32h-19.611v6.344h9.958v-4.578h1.72v4.578h2.548v-4.578h1.719v6.297h-15.945v7.444h9.958v-5.192h1.72v5.192h2.548v-5.192h1.719v6.911h-15.945v5.598h9.958v-3.672h1.72v3.672h2.548v-3.672h1.719v5.391h-17.664v-28.454l1.521-1.522 1.217 1.217-1.019 1.019v1.478h7.822v-.692h1.719v.692h11.674v-2.94h-11.674l-.234.4h-1.485v-2.119h13.393v-4.71h-13.844l-1.41 1.409-1.216-1.216zm55.7 0h3.283v1.719h-3.283zm30.27 0h33.631v6.979h-1.719v-5.26h-14.395v5.948h3.568v2.411h-1.719v-.691h-1.849v14.814h1.849v-.877h1.719v3.873h10.827v-16.431h1.719v16.431h1.559v1.719h-3.696v.773h-1.719v-.773h-2.927v2.321h-1.719v-2.321h-16.258v8.342h8.689v-4.99h1.719v4.99h5.85v-2.751h1.719v2.751h2.927v-4.99h1.719v6.709h-24.342v-10.061h-5.433v10.831l2.235 2.239-1.216 1.212-2.738-2.734v-15.593h1.719v2.326h5.433v-9.206h2.234v-3.615h1.719v3.615h1.548v1.719h-3.782v7.487h5.033v-11.961h-1.251v-1.719h1.251v-11.798h-12.185v18.85h-1.719zm19.366 12.141h1.719v8.944h-1.719zm-85.077 12.558h8.604v1.719h-8.604zm11.699 10.932h9.143v13.028h8.921v1.719h-10.64v-13.028h-7.424zm43.904 12.869h8.152l5.706 5.741v8.202l-5.706 5.744h-8.152l-5.707-5.744v-8.202zm20.186-.15 1.469 1.466h20.978v3.288h-1.719v-1.569H674.12l-1.969-1.969zm-86.266 2.54v11.541h14.234v2.488h-14.234v14.896h4.933v2.115h-1.719v-.396h-3.214v3.913h3.214v-2.035h1.719v2.035h7.672v-9.449h1.719v23.568h-10.251v-1.72h8.532v-9.358h-12.605v11.122h-3.427v-11.122h-13.013v9.358h8.037v1.72h-9.756V513.1h1.719v8.86h13.013v-20.528h-2.66v10.839h1.243v1.719h-2.962v-12.558h-8.634v5.984h-1.719l.064-20zm-31.781 5.399h1.719v4.022h-1.719zm74.944 8.139h10.126l2.295 2.295-1.217 1.213-1.791-1.788h-9.413zm-74.944 28.942h1.719v6.125h-1.719zm14.96 13.522h22.247v7.895h-22.247v-1.719h20.528v-4.457h-20.528zm35.894 3.034h9.976v1.719h-9.976z"/>
    </g>
    <g id="Ramps-2" class="road_tarmac road_small">
      <path d="M570.431 297.912h20.563" style="stroke:url(#linearGradient208)"/>
      <path d="M605.607 422.644h-21.523" style="stroke:url(#linearGradient206)"/>
      <path d="M619.625 422.562h21.606" style="stroke:url(#linearGradient204)"/>
      <path d="M695.05 422.656h-21.865" style="stroke:url(#linearGradient202)"/>
      <path d="M570.492 547.368h20.326" style="stroke:url(#linearGradient199)"/>
    </g>
  </g>
</svg>
