<svg xmlns="http://www.w3.org/2000/svg" xmlns:svg="http://www.w3.org/2000/svg" xmlns:xlink="http://www.w3.org/1999/xlink" xml:space="preserve" id="svg1" viewBox="0 0 887.70096 1043.9554">
  <style id="style_common">
    .trees { fill:#144043 }
    .cement { fill:#c6c2c2 }
    .land { fill:#1f5054 }
    .rock { fill:#dcd5b6 }
    .water { fill:#4a6b96 }
    .wood { fill:#593700 }
    .tarmac { fill:#768089 }
    .gravel { fill:#946d3e }
    .building { fill:#1a2632 }
    .floor { fill:#70777f }
    .locked { fill:#37414c }
    .map_border { fill:none;stroke:#000;stroke-width:2 }
    .fence { fill:none;stroke:#c4e3c3;stroke-width:1 }
    .road_tarmac { fill:none;stroke:#888 }
    .road_gravel { fill:none;stroke:#946d3e }
    .road_small { stroke-width:5 }
    .road_medium { stroke-width:8 }
    .road_large { stroke-width:12 }
    .railroad { fill:none;stroke:#914833;stroke-dasharray:6;stroke-width:3 }
    .powerline { fill:none;stroke:#ffce00;stroke-width:2;stroke-miterlimit:10;stroke-dasharray:6,6 }
    .danger { fill:red;fill-opacity:.4;stroke:red;stroke-dasharray:4,2;stroke-width:2 }
    .task { fill:#000 }
    .stairs { fill:#FFD700 }
    .shadow { filter:drop-shadow(0 0 2px #000) }
  </style>
  <g id="Ground_Level">
    <g id="Base_Terrain" class="land" data-name="Base Terrain">
      <path d="M-.0012 179.715H151.382v-24.11l50.85.67 9.661 5.207L288.8 121.46l18.819-56.3322 51.663-16.7664 10.188 1.884 22.617-6.06L403.45 30.346l2.421-43.7274-6.86-7.7929-10.645-5.4579L313.86-179.96H-.0012Z"/>
    </g>
    <g id="Forest" class="trees">
      <path d="M49.6885-21.912c-13.48 4.754 1.87 9.325 2.8 11.171 1 2.00999 1.77 4.56499 3.26 6.04999.8.803 3.7.427 4.18 1.397.95 1.885-.04 5.561 2.8 6.981 1.23.615 2.7.466 4.19.466 5.99 0-2.03-10.536.46-13.033.9-.895 4.41.589 5.59 0 1.09-.548 3.35-.556 4.19-1.39599.98-.982 1.21-2.468 2.79-3.258 3.15-1.575 14.73 4.82099 18.15 1.396 2.0405-2.043-4.26-5.854-5.58-6.516-4.73-2.361-10.26-4.665-13.5-7.912-2.17-2.17-7.47 1.379-8.38.465-1.81-1.814-4.31-3.784-6.98-5.12-4.51-2.253-7.02 5.159-8.85 6.982-.9.9-3.32 1.693-5.12 2.327"/>
      <path d="M266.588 3.22199c-4.77-.505-17.35-1.994-19.55-4.189-1.43-1.432-6.21 2.016-8.38.931-1.52-.764-5.81-3.722-6.98-1.396-1.05 2.113-2.64 6.195-.46 8.377.96.965 3.93.678 5.12 1.862 2.39 2.39301-3.06 5.45501 2.79 8.37801 6.39 3.193 8.69-14.11801 14.43-8.37801.82.825 16.28 8.85201 17.69 7.44701 1.73-1.731 5.31-2.982 7.44-5.12 1.18-1.17701-8.41-7.52201-12.1-7.91201"/>
      <path d="M8.7385 104.688c-.75 1.817 1.39 2.854 1.39 4.655 0 1.719.47 2.89.47 4.654 0 2.215 3.02 12.334 6.98 8.378 1.51-1.514 2.89-3.818 4.65-5.585.39-.388 8.92-.388 9.31 0 1.37 1.366 5.15 1.427 6.52 2.793 1.04 1.039 7.18-3.062 8.84-1.397 1.05 1.045 9.88 2.692 11.64.931 2.4-2.405-.54-10.162 1.86-12.567.65-.654 2.28-1.35 2.79-1.862 1.23-1.225 7.17 2.509 7.92 3.259 1.34 1.341 9.32 3.272 9.77 3.723 1.12 1.121.09 4.277 1.4 5.585 1.29 1.294 8.2.635 9.3-.465 1.25-1.241 1.56-3.413 2.8-4.654 2.1-2.105 8.3295 5.203 10.7005.465 1.359-2.712-4.24-14.02-6.0505-15.825-2.01-2.012-5.31-2.515-7.45-4.655-2.74-2.74 3.38-7.331 1.4-9.308-2.04-2.045-9.86-.168-11.17-2.793-1.91-3.816 8.83-5.596 4.19-10.24-.72-.723-3.1-1.032-4.19-1.396-9.83-3.276-7.91 10.709-11.17 7.447-3.37-3.373-.79-4.116-6.52-6.982-1.72-.862-9.31 1.692-9.31-.465 0-3.123 5.49-6.886 6.99-8.378 2.3-2.299-5.62-8.817-6.99-7.447-1.86 1.862-5.12 2.327-6.98 4.189-2.57 2.571.17 11.006-2.32 13.498-1.8 1.8-8.1-1.214-10.24.931-1.69 1.681 1.89 14.364 0 18.152-3.09 6.176-10.12-7.57-14.43-3.258-4.52 4.517 2.73 12.162 0 14.894-2.79 2.787-10.18-.974-12.1 3.723"/>
      <path d="M203.288 80.485c-3.39 3.243-15.51-1.246-17.22.466-4.49 4.492-2.41 8.378-10.71 8.378-.83 0-2.74.052-3.25-.466-4.5-4.492-1.17-11.054-6.99-13.963-6.23-3.115-9.88 14.787-8.37 16.291 3.26 3.262 8.84 6.514 11.17 8.843 3.971 3.97 4.711 9.828 8.381 13.498.89.896 4.47 2.885 6.51 1.862 4.73-2.363 1-7.112 3.26-11.636 1.06-2.122 4.08-5.476 5.58-6.982 3-2.999 13.93-.896 19.549-6.516 3.76-3.752-6.52-11.102-7.91-9.775"/>
      <path d="M307.548-42.391c-1.63 1.3-4.1 5.305-2.79 7.912 2.03 4.071 6.391 8.723 9.31 11.636 1.97 1.973-.85 8.925.93 10.705 5.75 5.75299 4.18 16.28799 9.31 21.41099 2.25 2.25401 8.59-1.862 10.24-1.862 3.01 0 7.97 6.92301 11.63 3.25801 3.57-3.56701-2.339-8.39001-4.19-10.24001-1.339-1.347 1.57-4.015 0-5.585-1.18-1.179-3.05-2.125-4.19-3.258-2.54-2.54499-8.38.926-12.56-3.25799-3.77-3.764 15.891-12.495 12.56-15.825-6.31-6.311-16.14.147-18.15-1.862-3.86-3.863-7.04-17.061-12.1-13.032"/>
    </g>
    <g id="Rocks" class="rock">
      <path d="M201.638 24.8054c-.71-.159-1.45-.268-2.15-.467-.55-.155-.47-.713-.78-1.067-.77-.868-2.16-1.365-2.58-2.351-.42-.985.2-1.945.45-2.897.13-.529.58-.976 1.19-1.061 1.26-.176 2.52.201 3.78.04.57-.074.81-.649 1.38-.771 1.14-.248 2.4.046 3.33.669.55.365 1.13.882 1.1 1.567-.06 1.133-.45 2.225-.87 3.277-.35.859-.64 1.793-1.35 2.455-.52.483-1.25.802-1.96.886-.52.061-1.03-.186-1.54-.28"/>
      <path d="M208.398 57.6114c.63 0-.79.615-1.01 1.058-.21.426.15 1.364.15 1.864 0 .14-.02.283.05.353.08.075-.02.327.05.403.12.115-.24.609-.05.806.5.5 1.07.616 1.51 1.058.13.128.62-.26.71-.303.5-.251.54-.843.8-1.108.18-.17.96-.3 1.47-.806.2-.202-.55-.915-.66-1.058-.33-.445-.41-.866-.6-1.259-.36-.706-1.42-.91-2.02-1.209-.13-.068-.55.201-.4.201"/>
    </g>
    <g id="Water" class="water">
      <path id="East_River" d="M292.93-201.363c1.96 9.959 3.69 20.66 9.62 28.895 1.57 2.171 5.02 2.541 6.43 4.814 4.02 6.473 1.23 15.445 4.17 22.473 2.17 5.176 8.49 8.314 9.63 13.805 1.34 6.411-5.41 12.9-3.85 19.261 1.5 6.136 10.08 8.714 11.88 14.768 1.57 5.255-4.51 11.723-1.61 16.373 2.12 3.388 7.29 3.599 11.24 4.174 3.19.464 6.61-1.742 9.63-.643 3.34 1.216 6 4.262 7.7 7.385 2.15 3.923.73 9.092 2.58 13.162 1.73 3.822 6.28 6.002 7.7 9.951 1.23 3.427-.48 7.366.32 10.916.93 4.11 2.25 8.484 5.13 11.557 1.91 2.023 4.63 3.615 7.39 3.853 2.8.24 5.24-2.891 8.02-2.568 3.72.431 6.88 3.238 9.63 5.777 1.36 1.25 2.77 2.71 3.22 4.495.42 1.673-.45 3.423-.64 5.136-2.14 17.965-9.033 51.9643-9.033 51.9643l8.26 30.8298 90.984-62.1185L459.37-.00009 431.61-27.681l-17.02-6.266s2.73-4.042 1.83-5.881c-.79-1.582-3.35-2.508-4.98-1.824-1.11.47-.75 2.352-1.48 3.315-.75.966-1.69 1.879-2.82 2.32-1.5.579-3.23.532-4.81.248-2.6-.469-5.09-1.677-7.29-3.148-1.12-.749-2.11-1.724-2.9-2.817-1.11-1.542-.6-4.921-2.48-5.137-1.09-.125-.98 2.719-2.07 2.569-5.22-.717-5.49-9.289-6.22-14.496-.27-1.931.74-5.799.74-5.799l-20.29-41.754s-.93-9.519-3.72-13.09c-.97-1.227-3.45-.889-4.06-2.32-.66-1.513 1.14-3.157 1.16-4.805.01-2.01-.11-4.286-1.33-5.883-1.01-1.314-3.44-.97-4.39-2.318-1.44-2.022.02-5.163-1.13-7.359-1.19-2.251-3.36-3.96-5.56-5.231-1.48-.853-4.01-.013-4.9-1.471-.92-1.514 1.4-3.504.98-5.226-1.19-4.901-7.72-7.146-9.31-11.93-.99-2.945 1.18-6.377.16-9.312-1.58-4.576-7.93-6.592-9.15-11.274-.49-1.872 1.49-3.854.98-5.719-.38-1.379-2.39-1.891-2.78-3.267-.19-.69.38-1.41.33-2.125-.25-3.628-3.1-6.82-3.1-10.457 0-1.93 1.68-3.626 1.63-5.555-12.712-26.481-33.712-3.724-24.7 12.33"/>
      <path id="Ocean" d="M-.0012 1043.96V179.715H157.706v109.879H52.7015v15.283H157.969v87.613H52.5698v15.547H157.969v5.401h43.741v433.85h67.719v7.51h72.857v-127.27h39.13v-9.09h32.147l74.711 278.826 346.67-92.89-6.196-23.125-7.016 1.88-70.147-261.793-24.168 6.476 63.344 236.404-97.586 26.148-143.047-533.857-62.841-16.838-65.048-242.7621-21.892-21.8918-8.261-30.8298L459.37-.00009H887.7V1043.96Z"/>
    </g>
    <g id="Pavement" class="cement">
      <path d="m392.087 44.1855-22.618 6.0605-10.187-1.8848-51.662 16.7657-18.82 56.3321-76.907 40.023-9.662-5.207-50.849-.67v24.11h6.324v109.879H52.7019v15.283H157.969v87.613H52.5691v15.547H157.969v5.402h43.741v433.85h65.138v9.176h-2.412v4.898h2.412v9.344h-5.187v9.254h5.187v15.908h-5.187v9.252h5.187v14.588h-5.187v9.252h5.187v14.586h-5.187v9.252c0 2.455.363 4.523 2.775 5.552 2.412 1.03 4.992 1.026 7.403 0 2.41-1.025 2.777-3.232 2.775-5.552v-9.252h-5.188v-14.586h5.188v-9.252h-5.188v-14.588h5.188v-9.252h-5.188v-15.908h5.188v-9.254h-5.188v-9.344h2.411v-4.898h-2.411v-1.666h72.858v-127.27h39.131v-9.092h32.146l74.711 278.827 346.67-92.891-6.195-23.123-7.016 1.879-70.148-261.793-24.168 6.476 63.343 236.405-97.585 26.146-143.047-533.855-62.84-16.838-65.049-242.7638-21.893-21.8907Z"/>
      <path d="m-134.172 171.232 182.9802 1.03s32.23 1.35 48.38 1.92l11.8198-11.9c.01-1.86.01-3.7.01-5.56.72-.62 1.44-1.23 2.16-1.84-.02-1.34-.03-2.69-.05-4.02-.53-.46-1.02-1.07-1.59-1.44-81.2398-2.18-162.4798-4.37-243.71-6.55Z"/>
      <path d="m385.833-11.4924 13.47-34.809 6.11 2.362-13.47 34.80901Z"/>
    </g>
    <g id="Roads" class="road_tarmac">
      <g id="Roads_Medium" class="road_medium">
        <path d="M228.78-185.243c3.22 14.637 7.74 28.975 12.45 43.197 4.15 12.499 8.46 24.987 13.91 36.974 6.82 15.01 15.88 28.904 23.43 43.564 8.09 15.72 16.18 31.461 23.43 47.589 5.56 12.38 10.88 24.898 15.38 37.706 2.98 8.525 5.5 17.222 7.68 25.991 3.57 14.375 8.79 43.565 8.79 43.565l123.723 460.426s4.629 17.71 5.157 20.98c.529 3.27-17.621 3.776-17.621 3.776l-178.053.491"/>
        <path d="M231.35 391.523v-201.53s-.42-10.65-2.57-15.38c-2.86-6.32-7.93-11.57-13.17-16.11-5.71-4.95-12.49-8.67-19.41-11.71-7.1-3.14-14.67-5.3-22.33-6.6-10.11-1.7-20.48-1.21-30.74-1.46-21.24-.5-42.47.26-63.71 0-30.4975-.364-60.282-.973-90.0944-1.673"/>
        <path d="M144.63 138.753s23.53-2.4 35.18-4.43c11.5-2.01 23.03-4.29 34.16-7.82 9.99-3.17 19.94-6.79 29.08-11.9 7.72-4.32 15.15-9.42 21.43-15.64 6.27-6.22 11.57-13.51 15.81-21.26 4.08-7.49 6.83-15.72 9.01-23.973 2.24-8.487 3.31-17.269 4.08-26.014.79-9.035.59-18.134.51-27.203-.07-7.656.05-15.352-.85-22.953-.68-5.628-3.47-17.431-3.47-17.431"/>
        <path d="M231.35 315.635h162.233"/>
        <path d="M306.913 315.635v89.397h110.692"/>
        <path d="M384.528 578.692V440.167"/>
        <path d="m384.528 533.067 47.557-74.15"/>
        <path d="M276.145 578.692v-93.068"/>
        <path d="m445.109 578.525 100.172 376.038 269.111-72.108-66.137-246.827"/>
        <path d="m536.411 921.265 53.43-14.295-23.99-89.53 57.867-15.505"/>
      </g>
    </g>
    <g id="Unacessible" class="locked" style="opacity:0.8">
      <path d="M359.282 48.3612 307.62 65.1269 288.8 121.459l-76.907 40.023-9.662-5.207-50.849-.67v24.11h6.324v109.879H52.7019v15.283H157.969v87.613H52.5691v15.547H157.969v5.402h43.741v433.85h65.138v9.176h-2.412v4.898h2.412v9.344h-5.187v9.254h5.187v15.908h-5.187v9.252h5.187v14.588h-5.187v9.252h5.187v14.586h-5.187v9.252c0 2.455.363 4.523 2.775 5.552 2.412 1.03 4.992 1.026 7.403 0 2.41-1.025 2.777-3.232 2.775-5.552v-9.252h-5.188v-14.586h5.188v-9.252h-5.188v-14.588h5.188v-9.252h-5.188v-15.908h5.188v-9.254h-5.188v-9.344h2.411v-4.898h-2.411v-1.666h72.858v-127.27h39.131v-9.092h32.146v-9.759h-35.185v8.576h-46.827v127.412h-65.203V687.715h5.444V630.68l-3.18-5.512-2.264 1.49v44.449h-8.168v9.897h-10.593v-69.813h-2.633v-17.375h2.363v-25.361h-2.172v-12.203h2.492v-3.832h8.305l4.863-8.424v-9.336h6.571l11.404-11.402h10.316v20.105h82.153v-45.017l-4.473-25.686v-39.322h30.93v5.177l5.252 2.516 28.718-7.693-2.355-8.785 6.066-1.625-3.898-14.543 14.441-3.871.883 3.293 4.281-1.149-.392-1.467-1.354-4.025-24.052 6.445 3.748 13.992-10.108 2.709 1.385 5.17-12.424 2.36-84.568-15.651h-2.09l-11.504-9.517-1.588 1.908-3.305-1.908v-10.549h-2.484v8.754h-3.937v-5.467h-9.342v-11.289h-26.819v23.414h-83.113l-2.582-4.471V286.793l-6.529-5.584-1.809-10.86v-8.585h53.086v-31.295h4.229v-8.998h13.711l1.447-1.37v-46.187l48.793-26.217 11.248-3.014 31.922-8.625 6.271 3.467 14.828-3.972-15.291-64.4027 16.295-4.3672 14.141 3.7891 5.916-10.2461-2.879-10.7442-2.475.6641Z"/>
      <path d="m620.105 617.665-12.807-8.896-6.701 1.796-1.814-6.77-22.777-2.136-25.181 6.747-6.394-23.861 2.17-.582-3.138-11.71-2.228.597-11.255-42.002 10.897-2.92-5.308-19.81-41.181 11.035-20.986-78.32 4.6-1.232-5.652-21.094-7.982 2.139-1.068-3.985-1.338-5.167 44.626-12.2-12.519-47.707-2.915-10.882 58.974 15.802Z"/>
      <path d="m661.98 773.943-10.988 2.944 1.73 6.454-13.497 3.616-1.698-6.338-3.814 1.022-18.537 18.537-12.269 3.287-20.852-77.818 12.195-3.267 1.201 4.479 19.767-5.297-.986-3.682 19.453-5.213-2.104-7.853 11.08-2.969Z"/>
      <path d="m503.963 537.191 7.611-2.039 11.231 41.915-2.491.667 3.251 12.133 2.413-.647 6.439 24.032-4.581 1.227 5.255 19.613 10.881-2.915 13.583 3.639-1.802-6.725 11.648-3.121 10.856 40.516-2.214.593 2.015 7.521 2.7-.724 8.015 29.911-11.964 3.205-.774-2.887-14.186 14.185v13.829l2.215-.593 20.748 77.431-12.359 3.311-7.067-26.374-2.168.581-11.942-11.942-16.969-4.547-2.844-10.613-4.603 1.234-2.941-10.979-18.203-4.877-1.117-4.167 3.959-6.857-15.131-56.47-5.116 1.371-11.479-42.843 4.948-1.326-9.188-34.291 9.91-17.164 12.187-3.266.657 2.455 13.614 3.648-.953-3.559 5.102-1.367-3.074-11.474-2.635.706-6.737-25.142 4.722-1.266Z"/>
      <path d="m698.423 888.958 3.946 14.725 6.881-1.844 2.238 8.353 2.704-.725 6.816 25.436 2.5-.67-7.206-26.894-2.811.753-2.58-9.632-2.861.767-3.212-11.988Z"/>
      <path d="m537.148 984.168-4.143-15.462-6.877-24.632-38.358 10.384-10.231 2.742 10.735 40.064Z"/>
      <path d="M341.268 335.875h18.766v58.658h-18.766Z"/>
    </g>
    <g id="Limit" class="map_border">
      <path d="m392.086 44.1853-22.616 6.0601-10.188-1.884-51.663 16.7664L288.8 121.46l-76.907 40.022-9.661-5.207-50.85-.67v24.11"/>
    </g>
    <g id="Fences" class="fence">
      <path d="m303.28645 154.30623-42.07467 11.27387 5.93094 22.13456m.73137 2.72953 3.36787 12.56906 15.85961-4.24957"/>
      <path d="m310.121 156.538 5.314 19.832m.897 3.346 2.776 10.362-9.119 2.444"/>
      <path d="M269.99678 228.08781h14.13013m5.05885 0h6.89836"/>
      <path d="M269.99678 304.67046h13.36784m5.40534 0h7.31416"/>
      <path d="M328.28213 303.79563h3.45336m4.43515 0h4.78311"/>
      <path d="M263.84805 329.3737v-23.84738"/>
      <path d="M250.33717 365.34043h-6.70818v6.79652m0 5.40534v20.54517"/>
      <path d="M262.2608 398.10189v-9.9793h26.8202V376.78m0-6.37553v-13.83752"/>
      <path d="M289.081 388.12259v11.29"/>
      <path d="m391.18642 323.26739 6.27772 23.36215h-8.69827"/>
      <path d="M372.01561 564.77989v9.46253h-82.42045v-5.23686"/>
      <path d="M266.3487 472.66003v102.54179m0 6.28823v246.70762"/>
      <path d="M266.3487 844.66639h65.2036v-127.4125h46.8269V583.16105H266.3487"/>
      <path d="M278.19258 813.96158h40.72951V695.41861h-40.72951z"/>
      <path d="M278.19258 736.50796h40.72951"/>
      <path d="M278.19258 773.55059h40.72951"/>
      <path d="M288.25261 624.44053H271.7937m0 6.15412v59.60078m3.29232 0h23.35904m6.4861 0h13.70238m4.44321 0v-55.90492m0-6.4861v-3.36388h-23.19969"/>
      <path d="M330.31441 639.06984h40.65408v66.37087h-40.65408z"/>
      <path d="M323.32944 438.51476v7.53006h-35.48031v26.61521h-84.3907v-61.12224"/>
      <path d="M220.6643 411.53779h-61.25457"/>
      <path d="M221.313 261.763H159.62v-82.048h65.921v50.753h-4.228Z"/>
      <path d="M240.701 185.132v-11.217l48.792-26.218 11.248-3.014"/>
      <path d="M239.25331 221.47053H225.5425"/>
      <path d="M289.081 399.41259h9.3417v12.50804h-9.3417z"/>
      <path d="M262.26 411.538v61.122"/>
      <path d="m-66.93614 172.36424 113.67.8"/>
      <path d="m51.03386 173.26424 46.47 1.83 9.85-9.89"/>
      <path d="m109.97386 162.37424.06-5.4 2.09-1.73-.1-4.88-1.83-1.77-32.7-.79"/>
      <path d="m71.52386 147.65424-43.49-1.21"/>
      <path d="m21.64386 146.18424-20.85-.42"/>
    </g>
    <g id="Buildings" class="building">
      <g id="Powerline_Towers">
        <path d="m79.25 45.316 4.71 4.661 4.81-4.866-4.7-4.66Z"/>
        <path d="m133.78 109.049 4.82-4.525-4.53-4.833-4.83 4.525Z"/>
        <path d="m186.15 172.531 5.24-4.128-3.85-4.854-5.23 4.149Z"/>
      </g>
      <g id="15degrees">
        <path d="m341.96 63.5301-1.308-4.8825 7.124-1.909 7.125-1.909 1.308 4.8825 1.308 4.8825-7.124 1.909-7.125 1.909Z"/>
        <path d="m381.14 69.8524-1.322-4.9324 7.075-1.8956 7.074-1.8956 1.322 4.9323 1.322 4.9323-7.075 1.8957-7.075 1.8956Z"/>
        <path d="m304.289 158.1-2.007-7.588-2.006-7.589 21.986-16.507 4.793 1.051 3.199-1.801 5.316 1.906 3.364 11.954-2.292.614 2.323 8.669Z"/>
        <path d="m307.16 163.632-.827-3.089 1.444-.387 1.445-.387.828 3.089.828 3.089-1.445.387-1.445.387Z"/>
        <path d="m324.104 163.097-2.576-9.616 7.174-1.922 7.174-1.923 2.577 9.616 2.283 8.519-7.175 1.923-7.174 1.922Z"/>
        <path d="m277.025 191.464-.213-.797 4.484-1.202 4.484-1.201.213.797.214.797-4.484 1.202-4.484 1.201Z"/>
        <path d="m304.078 186.405-.414-1.545 3.188-.854 3.189-.855.414 1.545.414 1.544-3.189.855-3.188.854Z"/>
        <path d="m291.768 189.489-.921-3.437 3.388-.908 3.388-.908.921 3.438.921 3.438-3.388.907-3.388.908Z"/>
        <path d="m314.19 185.084-.628-2.342 1.096-.294 1.097-.293.627 2.341.627 2.342-1.096.293-1.096.294Z"/>
        <path d="m278.44 196.745-.213-.797 4.484-1.202 4.484-1.201.213.797.214.797-4.484 1.202-4.484 1.201Z"/>
        <path d="m272.179 194.899-1.202-4.484.797-.214.797-.213 1.202 4.483 1.201 4.484-.797.214-.797.214Z"/>
        <path d="m354.211 118.879 28.314-7.587 15.085 56.298-28.099 7.529Z"/>
        <path d="m290.286 211.086-3.383-13.084 22.909-6.139 3.498 13.054Z"/>
        <path d="m293.481 214.315-2.175.552-.387-1.443-.627-2.34 15.445-4.138.641 2.391.4 1.495z"/>
        <path d="m336.187 203.806-3.524-13.153 16.839-4.513 3.525 13.153 3.791 14.15-8.42 2.256-8.419 2.256Z"/>
        <path d="m335.418 219.177 10.7-2.867 10.7-2.867 9.131 34.078-10.822 2.9-10.823 2.9Z"/>
        <path d="m434.37 356.596 22.52-6.034 3.551 13.253-22.52 6.034Z"/>
        <path d="m450.702 405.192 8.071-2.163-3.177-11.858 13.252-3.551-.56-2.092 1.594-.427.561 2.092 15.943-4.272-.614-2.291 4.085-1.095.641 2.391 7.174-1.922-7.334-27.37 11.225-3.148 1.655 6.177 7.374-1.975 12.575 46.931-68.754 18.423Z"/>
        <path d="m425.288 690.581-5.433-20.277 3.686-.988 4.847-1.423 10.866 40.555-4.846 1.422-3.687.988Z"/>
        <path d="m430.427 676.282-10.159-37.915 11.559-3.097 11.558-3.097 10.159 37.914 10.159 37.914-11.558 3.098-11.559 3.097Z"/>
        <path d="m440.965 730.755-1.575-5.879 17.636-4.726 17.637-4.726 1.575 5.879 1.576 5.879-17.637 4.726-17.637 4.725Z"/>
        <path d="m445.691 748.391-1.576-5.879 17.637-4.725 17.637-4.726 1.575 5.879 1.576 5.879-17.637 4.726-17.637 4.725Z"/>
        <path d="m451.464 768.743-1.763-6.581 22.419-6.008 1.763 6.579 1.763 6.579-22.417 6.017Z"/>
        <path d="m495.038 938.136-1.429-5.331 9.117-2.442 9.118-2.443 1.428 5.33 1.429 5.331-9.118 2.443-9.117 2.443Z"/>
        <path d="m637.471 896.324-4.579-17.089 20.445-5.568 19.43-5.207 4.579 17.089 4.579 17.089-19.43 5.206-20.445 5.569Z"/>
        <path d="m588.447 877.811-12.602-47.031 20.576-5.514 20.576-5.513 12.603 47.031 12.602 47.032-20.577 5.513-20.576 5.513Z"/>
        <path d="m490.905 966.157-3.458-12.904 20.228-5.42 20.227-5.42 3.458 12.904 3.457 12.903-20.227 5.42-20.228 5.42Z"/>
      </g>
      <g id="Straight">
        <path d="M194.898 169.688h14.236v8.562h-14.236Z"/>
        <path d="M163.594 183.79h13.251l.109 22.983-13.21.053Z"/>
        <path d="m188.494 213.631.111-29.838 14.305.126-.14 29.714Z"/>
        <path d="M210.784 184.336h14.339v29.813h-14.339Z"/>
        <path d="M239.253 221.473v-36.338h17.528l-.102 36.338Z"/>
        <path d="m163.228 245.302 28.575-.136v4.779l9.508.103v8.934l-38.083.144Z"/>
        <path d="M203.357 251.595h16.711v8.15h-16.711Z"/>
        <path d="m163.228 267.275 4.541-.035v2.408h-4.541Z"/>
        <path d="m269.997 244.35 8.587.024-.286 41.867-8.301.147Z"/>
        <path d="M319.771 304.879v-41.937h8.511v41.937Z"/>
        <path d="M296.084 305.426v-78.289h23.687v78.289Z"/>
        <path d="m246.483 305.44-.198-78.317 23.712.203v78.234Z"/>
        <path d="m341.073 267.141 27.079.271.109 41.842-27.326.123Z"/>
        <path d="m250.385 368.083-.081-4.635-.011-1.673-1.108-.03-1.109-.029-.027-6.834-.026-6.834h2.477v-7.221l11.76.023v-11.474h13.307v11.451l12.431-.001v-1.56h3.61l3.507-.038.061 1.599h1.332l.052 15.731-17.511.026-17.511.026v11.473Z"/>
        <path d="M171.892 386.916v-1.424h-1.856V281.209l1.695-.06.01-1.341 30.399-.052-.07 1.393 1.913.059-.029 47.67-.082 56.71-1.699.06-.061 1.27h-30.22Z"/>
        <path d="M245.239 385.494h3.507v6.19h-3.507Z"/>
        <path d="m357.647 333.348 26.361.103-.023 61.946h-26.304Z"/>
        <path d="m317.398 333.348 26.314-.06.043 62.109h-26.306Z"/>
        <path d="m278.611 409.942.009-18.001 9.978-.053v18.054Z"/>
        <path d="M291.969 404.166h3.508v6.189h-3.508Z"/>
        <path d="m220.653 413.484.06-10.263 9.31-.035-.056-5.107 33.222.026.135 15.448Z"/>
        <path d="M397.706 418.204h6.723l4.108 16.156-3.43 3.641h-7.401Z"/>
        <path d="M240.286 424.382h24.185l-.01 14.031h-24.178Z"/>
        <path d="M323.329 413.893h74.377v24.624h-74.377Z"/>
        <path d="m240.424 442.171.016-3.758h15.629v3.758Z"/>
        <path d="M207.38 427.376h12.664l.034 21.844-12.698.129Z"/>
        <path d="M228.01 458.836v-11.738l18.145.031 17.522.039-.052 11.678Z"/>
        <path d="M335.708 438.517h39.558l-.1 25.594-39.458.076Z"/>
        <path d="m289.134 451.051 3.462.126-.008 13.439h-3.517Z"/>
        <path d="M286.192 472.662h86.344v25.687h-86.344Z"/>
        <path d="m286.366 531.584-.174-25.602h86.448l-.053 25.635Z"/>
        <path d="m286.384 564.599-.032-25.454 86.389-.052v25.687Z"/>
        <path d="M421.108 529.312h10.546l.111 9.205h4.891v30.51h-15.431Z"/>
        <path d="M418.683 604.808v-13.485l23.947-.059.053 13.544Z"/>
        <path d="m300.709 608.824.079-8.574h-3.672v-11.744h3.517v-3.507l22.082.129-.116 7.762 3.669.104-.052 10.057h-1.547v4.881l-14.47-.119v1.127Z"/>
        <path d="M418.683 604.808h15.545l-.057 4.381-15.488.053Z"/>
        <path d="m272.655 615.482.022-9.456h18.958l-.031 9.456Z"/>
        <path d="M343.135 602.433h24.757v21.56h-24.757Z"/>
        <path d="M391.309 603.155h6.912v92.223h-6.912Z"/>
        <path d="M282.168 826.801h46.524v11.554h-46.524Z"/>
      </g>
      <g id="Cilinders">
        <circle cx="297.7282" cy="793.9511" r="14.59173"/>
        <circle cx="297.7282" cy="755.6488" r="14.59173"/>
        <circle cx="297.7282" cy="716.3443" r="14.59173"/>
        <circle cx="284.5882" cy="673.0244" r="8.41218"/>
        <circle cx="310.648" cy="673.0244" r="8.41218"/>
        <circle cx="284.5882" cy="645.1477" r="8.41218"/>
        <circle cx="310.648" cy="645.1477" r="8.41218"/>
        <circle cx="342.507" cy="692.6856" r="7.26669"/>
        <circle cx="361.4792" cy="692.6856" r="7.26669"/>
        <circle cx="342.507" cy="672.1383" r="7.26669"/>
        <circle cx="361.4792" cy="672.1383" r="7.26669"/>
        <circle cx="342.507" cy="651.8059" r="7.26669"/>
        <circle cx="361.4792" cy="651.8059" r="7.26669"/>
      </g>
    </g>
    <g id="Railroad" class="railroad">
      <path d="m386.1-199.687 4.09 35.774 3.28 15.293 19.12 35.229 4.37 18.296-3.28 18.297-47.632 127.8527c-2.898 5.4324-6.49 12.9918-8.446 18.2168-1.956 5.2251-3.942 12.6512-2.637 18.8505l33.63 127.696 14.716 53.987 15.819 58.989s1.469 6.963 1.547 10.5c.067 2.993-.53 5.965-.912 8.934-.389 3.017-1.189 5.983-1.403 9.018-.259 3.687.155 11.087.155 11.087l142.399 531.37"/>
      <path d="M361.55 60.4738s-2.061 5.5246-2.163 8.6875c-.094 2.9309 1.293 8.7017 1.293 8.7017l66.723 250.054s1.591 7.68 1.516 11.568c-.073 3.764-1.328 7.411-1.899 11.132-.654 4.264-1.717 8.51-1.748 12.824-.029 4.093 1.484 12.191 1.484 12.191l139.82 522.677"/>
      <path d="m372.651 90.3716 47.523 175.7214"/>
      <path d="m407.535 101.786 71.621 266.736"/>
      <path d="m412.538 100.469 71.621 266.737"/>
      <path d="m431.496 231.863 37.654 138.766"/>
      <path d="m555.517 901.206-92.16-343.624s-.596-7.896-.79-11.85c-.274-5.613-1.138-17.271-1.138-17.271" style="stroke-dashoffset:1.5"/>
      <path d="m550.514 902.522-77.678-289.645s-.3-7.902-.526-11.849c-.287-5.007-1.054-15.009-1.054-15.009"/>
      <path d="m390.683 698.191-.264-150.352s1.13-8.95 2.633-13.166c1.636-4.586 6.847-12.902 6.847-12.902l32.914-51.873s3.859-8.943 4.739-13.692c.961-5.181.537-14.84.537-14.84" style="stroke-dashoffset:3.3"/>
      <path d="M398.582 697.664V539.413s.961-10.144 2.37-15.009c1.356-4.683 5.733-13.328 5.733-13.328" style="stroke-dashoffset:6.3"/>
      <path d="m472.573 910.422-56.349-208.545s-1.089-5.57-1.41-8.387c-.27-2.372-.433-7.148-.433-7.148l1.58-181.423s.674-5.781 1.47-8.567c.794-2.776 3.678-8.24 3.678-8.24" style="stroke-dashoffset:6.6"/>
      <path d="m477.313 909.369-60.299-226.187s-1.221-5.082-1.615-7.662c-.399-2.606-.755-7.873-.755-7.873" style="stroke-dashoffset:7.2"/>
      <path d="M404.638 275.309s-1.451-9.461-1.316-14.219c.1-3.548 1.528-6.982 1.579-10.532.074-5.127-1.843-15.272-1.843-15.272"/>
      <path d="M389.748 220.048s-1.307-9.496-1.172-14.254c.1-3.548 1.529-6.982 1.58-10.532.074-5.127-2.178-15.096-2.178-15.096" style="stroke-dashoffset:9.9"/>
      <path d="M397.903 217.361s-.509-9.705-.374-14.463c.1-3.549 1.529-6.983 1.58-10.533.074-5.127-3.007-15.278-3.007-15.278" style="stroke-dashoffset:7.8"/>
      <path d="M408.855 224.242s3.499 9.944 6.316 14.203c5.722 8.653 15.112 14.413 21.065 22.909 2.951 4.211 6.657 12.51 6.657 12.51" style="stroke-dashoffset:6.6"/>
      <path d="M451.347 305.02s3.724 9.419 6.217 13.736c3.227 5.586 7.72 10.392 10.796 16.062 2.138 3.941 5.266 12.376 5.266 12.376" style="stroke-dashoffset:3.9"/>
      <path d="M437.047 211.566s3.147 8.534 5.245 12.397c.977 1.799 2.194 3.461 3.16 5.266 1.741 3.254 4.557 10.676 4.557 10.676" style="stroke-dashoffset:5.7"/>
    </g>
    <g id="Powerlines" class="powerline">
      <path d="m.05-20.407 83.96 65.621 49.91 59.156 52.93 63.67"/>
    </g>
    <g id="Mines" class="danger">
      <path d="m222.92 153.685 64.77-32.962 19.08-56.119 12.39-3.857-19.92-9.952-21.35 62.004-60.58 30.291Z"/>
    </g>
  </g>
  <g id="First_Floor" class="shadow" data-keep-with-group="Ground_Level">
    <g id="Stairs-1" class="stairs">
      <path d="M316.948 705.743h3.949v6.632h-3.949Z"/>
      <path d="M316.948 751.374h3.949v6.632h-3.949Z"/>
      <path d="M316.948 789.566h3.949v6.631h-3.949Z"/>
      <path d="M305.264 734.636h6.938v3.744h-6.938Z"/>
      <path d="M305.264 771.679h6.938v3.743h-6.938Z"/>
      <path d="M305.264 812.043h6.938v3.744h-6.938Z"/>
    </g>
    <g id="Floors-1" class="floor">
      <path d="M390.734 414.213v5.832h-.388v-1.494h-6.457v15.031h6.457v-1.496h.388v6.08h1.828v.35h3.188v-.35h1.555v-8.041h-6.571v.4h-.388v-.4h-2.532v-8.158h2.532v-.362h.388v.362h6.571v-7.754Z"/>
      <path d="M392.64453 413.89062v1.22657h2.89063v-1.22657zM282.73438 827.33398v1.91993h-.56446v2.71679h.56446v3.16797h38.64843v-3.8164h2.46875v.44921h-1.99414v3.36719h6.3086v-3.36719h-2.36914v-.44921h2.39453v-3.98829z"/>
      <path d="M256.381 340.836v.523h-.996v4.918h2.906v2.45h3.689v7.416h3.875v.459h2.026v-.459h2.228v-1.881h-6.336v-7.985h-2.574v-4.918h-2.748v-.523Z"/>
      <path d="M262.748 329.895v2.748h-.488v1.859h.488v2.977h12.354v-.247h.464v-1.423h-.464v-.303h-4.147v-.428h4.147v-5.183h-6.821v5.183h.836v.428h-1.324v-5.611Z"/>
      <path d="M185.551 307.688v14.804h-.393v-3.066h-5.844v5.267h5.844v-.55h.393v.914h-6.237v16.642h5.844v5.582h.838v11.61h3.223v-11.61h8.092v-2.176h6.22v-4.406h.453v-2.804h-.453v-.594h-6.22v-2.162h6.22v-5.446h-1.881v2.047h-4.339v-2.047h-.182v-.363h6.402v-.627h.426v-3.035h-.426v-.611h-7.771v4.273h.181v.363h-.539v-10.267h-6.289v-11.738Z"/>
      <path d="m336.156 153.086-8.25 2.211 3.846 14.355.836-.224.131.492 1.726-.463-.115-.496 5.674-1.52Z"/>
    </g>
  </g>
</svg>
